<?xml version="1.0" encoding="UTF-8" standalone="no"?>
<!-- Created with Inkscape (http://www.inkscape.org/) -->

<svg
   width="210mm"
   height="297mm"
   viewBox="0 0 210 297"
   version="1.1"
   id="svg1"
   xml:space="preserve"
   xmlns="http://www.w3.org/2000/svg"
   xmlns:svg="http://www.w3.org/2000/svg"><defs
     id="defs1" /><g
     id="layer1"><path
       style="fill:#990000;fill-opacity:1;stroke-width:1.44675"
       d="m 59.575094,246.29172 c -0.20628,-0.26662 -1.96695,-4.48113 -3.91257,-9.36561 l -3.537505,-8.88086 -1.35983,-0.44879 -1.359815,-0.44878 -1.903273,0.22542 -1.903273,0.22542 -1.96758,-0.41629 c -2.668561,-0.56458 -3.843336,-1.22161 -5.077574,-2.8398 l -1.044235,-1.36906 -0.262774,-6.57415 -0.262788,-6.57415 0.528137,-1.04619 0.528136,-1.04617 1.158138,-0.5989 1.158153,-0.59891 -0.213859,-3.71392 c -0.476689,-8.27853 -1.942233,-54.64954 -2.415451,-76.42661 l -0.274116,-12.61529 -0.954956,-0.22484 -0.954957,-0.22482 -0.112412,-0.58364 -0.112413,-0.58363 2.788163,0.47359 2.788163,0.47361 0.44612,-0.37027 0.446135,-0.37025 0.209779,0.33944 0.209778,0.33943 2.085708,-0.28304 c 1.147143,-0.15567 2.575303,-0.54947 3.173679,-0.87512 0.598391,-0.32565 1.441817,-0.75622 1.87428,-0.95681 l 0.786323,-0.3647 11.845619,-0.60017 c 15.28692,-0.77452 27.55472,-1.19784 33.09026,-1.14185 l 4.40204,0.0446 2.443006,0.45402 2.44303,0.45401 3.29877,-0.0247 c 1.81432,-0.013 4.66802,-0.18239 6.34155,-0.37512 l 3.04279,-0.35041 0.44449,-0.60788 c 0.24447,-0.33433 0.59973,-0.60787 0.78948,-0.60787 h 0.345 l 0.11184,-6.00299 c 0.0615,-3.301641 0.19765,-6.141841 0.30256,-6.311581 l 0.19072,-0.3086 -0.60546,0.23233 -0.60547,0.23235 0.2286,0.72023 0.22859,0.72024 h -0.40858 c -0.22472,0 -0.40858,-0.15994 -0.40858,-0.35544 0,-0.1955 -0.25759,-0.61303 -0.57242,-0.92786 l -0.57242,-0.57242 1.2423,-0.3913 c 0.68325,-0.21523 2.04945,-0.50461 3.03597,-0.64307 l 1.79367,-0.25176 4.13952,0.4478 c 5.25439,0.56838 17.76282,2.26143 20.02512,2.71044 2.87935,0.57148 3.1186,0.63116 7.27293,1.81441 5.35231,1.524471 7.39682,1.995901 8.68649,2.002931 0.59102,0.003 1.33294,0.18592 1.64874,0.40602 l 0.57418,0.40014 -1.14836,-0.19077 c -2.41403,-0.40103 -5.73247,-0.6856 -5.52554,-0.47384 0.11892,0.12167 1.15245,0.39087 2.29672,0.59814 l 2.08047,0.37685 -2.26362,-0.18912 -2.26363,-0.18911 -5.35694,-1.51808 c -2.94632,-0.834951 -6.81817,-1.773141 -8.60413,-2.084871 -3.3642,-0.58721 -4.32128,-0.94115 -2.72442,-1.00753 l 0.92507,-0.0385 -1.53114,-0.37078 -1.53115,-0.37077 -2.10532,0.18816 -2.10532,0.18818 -1.91394,-0.33122 -1.91393,-0.33122 2.8709,0.13745 2.87089,0.13744 -2.87089,-0.50778 -2.8709,-0.50778 -5.74179,-0.17544 -5.74179,-0.17542 3.44507,0.25918 3.44507,0.25917 -3.33202,0.0734 -3.33204,0.0732 -0.20897,1.24406 c -0.11487,0.68423 -0.25192,3.397221 -0.30442,6.028891 l -0.0955,4.78482 4.59343,-0.007 c 2.52639,-0.004 8.29689,-0.14529 12.82333,-0.31482 4.52645,-0.16951 11.76112,-0.42647 16.07702,-0.57101 l 7.84712,-0.26282 0.29872,0.38622 0.29871,0.38621 -0.23149,-1.00077 -0.2315,-1.00078 0.60265,-0.23126 c 0.33146,-0.12717 0.88651,-0.12239 1.23344,0.0101 l 0.63078,0.24205 -0.1933,-1.0112 -0.1933,-1.01121 0.65696,-0.2085 c 0.76955,-0.24426 1.91315,0.12355 1.91315,0.61537 0,0.18801 -0.15215,0.34184 -0.33813,0.34184 -0.18598,0 -0.43277,0.36183 -0.54842,0.80407 l -0.21027,0.80409 -0.40855,-0.2525 -0.40855,-0.25248 -0.0574,0.97955 c -0.0315,0.53875 -0.0746,1.19487 -0.0958,1.45803 l -0.0383,0.47849 2.76231,0.0383 2.76231,0.0383 -0.18089,-0.29267 c -0.0995,-0.16097 -0.0227,-0.35045 0.17059,-0.42107 l 0.35146,-0.12847 0.41527,-3.63646 c 0.2284,-2.00006 0.39104,-3.980971 0.36144,-4.402051 -0.0297,-0.42106 0.0815,-1.4393 0.24679,-2.26276 l 0.30064,-1.4972 -0.62837,0.24113 -0.62835,0.24113 v -0.36194 c 0,-0.19908 -0.42138,-0.63805 -0.9364,-0.9755 l -0.93638,-0.61354 -0.69046,0.40169 -0.69045,0.40167 0.66988,0.0116 c 0.8736,0.0152 0.85869,0.64921 -0.0265,1.12291 l -0.69629,0.37264 -2.21119,-0.30006 -2.21118,-0.30007 -0.33216,-0.53758 -0.33215,-0.5376 h -2.08129 -2.0813 l 0.1759,-0.28708 0.1759,-0.28709 h -0.78816 -0.78817 v -0.37078 -0.37077 l -0.53547,0.20547 -0.53545,0.20548 -0.25657,-0.41513 -0.25655,-0.41511 -0.37311,0.23058 -0.3731,0.2306 -0.46171,-0.36296 c -0.25395,-0.19963 -0.93541,-0.47613 -1.51439,-0.61442 l -1.05266,-0.25148 v 0.46324 0.46325 l -0.47848,-0.6087 c -0.26316,-0.33477 -0.86605,-0.72382 -1.33975,-0.86453 l -0.86126,-0.25583 v 0.40858 c 0,0.22472 -0.17227,0.40857 -0.3828,0.40857 -0.21053,0 -0.38278,-0.25837 -0.38278,-0.57417 0,-0.31579 -0.17225,-0.57418 -0.38278,-0.57418 -0.21055,0 -0.3828,0.17225 -0.3828,0.38278 v 0.38279 h -0.92566 c -0.50911,0 -1.19713,-0.10416 -1.52894,-0.23151 l -0.60329,-0.23149 0.21179,-0.34268 0.21179,-0.34267 h -0.32882 c -0.18086,0 -0.50204,0.1732 -0.71374,0.3849 l -0.38491,0.38491 -2.24836,-0.45153 -2.24836,-0.45153 0.73848,-0.30259 0.73848,-0.30259 -2.10532,0.17089 -2.10533,0.17089 0.95697,-0.31725 0.95697,-0.31728 -2.29672,-0.27421 c -1.26319,-0.15081 -2.81348,-0.35223 -3.44507,-0.44758 -0.6316,-0.0954 -2.31107,-0.2817 -3.73217,-0.41408 l -2.5838,-0.24071 v 0.38005 0.38006 l -1.20667,0.0343 -1.20667,0.0343 -0.36059,0.50242 -0.36058,0.50243 0.21633,-0.67206 0.21632,-0.67206 -1.61566,0.0208 c -1.67107,0.0215 -5.50366,-0.62855 -4.48656,-0.76107 l 0.57417,-0.0748 -0.76556,-0.32898 -0.76558,-0.32898 -2.48811,0.0438 -2.4881,0.0438 2.00962,0.14063 2.00962,0.14062 v 0.38537 0.38538 l 0.35634,-0.22023 0.35633,-0.22024 0.24044,0.38903 0.24043,0.38903 -0.69246,0.006 -0.69247,0.006 0.57419,0.37106 0.57417,0.37108 -2.20427,0.006 -2.20425,0.006 0.4347,0.69608 0.43471,0.69606 -1.01044,1.60065 -1.01046,1.60064 -0.66507,-4.6e-4 -0.66507,-4.8e-4 1.14123,-0.98143 1.14122,-0.98143 -0.0389,-1.48609 -0.0389,-1.48609 0.81167,-0.17653 0.81167,-0.17654 -1.14836,0.0608 -1.14836,0.0608 -0.12225,0.86128 -0.12225,0.86127 h 0.41924 0.41924 l -0.56986,1.10197 c -0.31341,0.60608 -0.82576,1.20017 -1.13855,1.32021 l -0.56872,0.21822 -1.16797,-0.58266 -1.168,-0.58268 0.006,-0.45045 0.006,-0.45044 0.37106,0.57419 0.37106,0.57417 0.006,-1.81824 0.006,-1.81823 h -0.73896 -0.73894 l -0.1659,0.86127 -0.16588,0.86128 -0.0521,-0.86128 c -0.0286,-0.4737 -0.18586,-0.86127 -0.34933,-0.86127 h -0.29721 l 0.14636,1.53469 0.14635,1.53469 -0.62449,-0.23964 -0.62449,-0.23964 0.37653,-0.4537 0.37655,-0.4537 -0.22002,-0.84134 -0.22003,-0.84136 -0.62522,0.006 -0.62523,0.006 0.52178,0.33059 0.5218,0.33059 -0.41743,0.14207 c -0.22958,0.0781 -0.52899,0.70184 -0.66533,1.38608 l -0.24791,1.24405 h 0.45322 0.45322 l -0.27313,-0.44192 -0.27312,-0.44194 0.44193,0.27313 0.44194,0.27313 v 1.46876 1.46875 l 5.64609,0.25181 5.64608,0.2518 0.76558,0.35447 0.76558,0.35447 -4.59344,-0.16086 -4.59343,-0.16087 3.44508,0.35169 c 4.77673,0.48763 5.88526,0.72676 2.57449,0.55537 l -2.7845,-0.1441 0.18385,0.2975 0.18387,0.29749 h -0.55735 c -0.30654,0 -0.55733,-0.14352 -0.55733,-0.31899 0,-0.17544 -0.30145,-0.31635 -0.66988,-0.31312 l -0.66987,0.006 0.57417,0.37693 0.57419,0.37692 -0.57419,0.37693 c -1.10187,0.72334 -1.75313,0.38423 -1.58627,-0.82599 0.0195,-0.14178 -1.06607,-0.37565 -2.41245,-0.51983 l -2.44795,-0.26215 -0.38227,0.23625 -0.38227,0.23626 -0.5777,-0.57769 c -0.317737,-0.31774 -0.891447,-0.57507 -1.274907,-0.57184 l -0.69722,0.006 0.52862,0.33481 0.52863,0.33481 -1.4856,0.22165 c -0.81707,0.12197 -2.69136,0.32518 -4.16509,0.45172 -8.20152,0.70422 -19.96756,2.87878 -30.43148,5.624231 -5.76706,1.51311 -6.30962,1.60448 -4.01927,0.67679 2.01395,-0.81575 1.84023,-0.79403 -3.06227,0.38281 -1.684269,0.4043 -4.181953,0.99451 -5.550406,1.3116 l -2.488107,0.57651 1.72253,-0.15819 1.722545,-0.15818 -1.148358,0.39046 c -0.631608,0.21476 -1.535668,0.57909 -2.009059,0.80963 l -0.860687,0.41918 -0.276575,-0.27659 -0.27659,-0.27657 0.56309,-0.35612 0.563104,-0.3561 -0.459473,-0.006 c -0.252704,-0.003 -0.618949,0.27912 -0.81387,0.62745 l -0.354425,0.63332 -0.71727,-0.27898 -0.717255,-0.27896 0.823476,-0.67219 0.823461,-0.67219 3.769972,-0.62935 c 2.073468,-0.34613 6.612137,-1.40712 10.085937,-2.35775 9.72764,-2.662041 22.88613,-5.274731 29.85731,-5.928311 2.42112,-0.227 4.91879,-0.5262 5.55038,-0.66487 0.63161,-0.13874 1.84452,-0.23201 2.69539,-0.20742 l 1.547017,0.0447 0.0606,-0.80512 c 0.0333,-0.44281 0.25982,-0.92822 0.50327,-1.07867 l 0.44263,-0.27356 0.0689,-1.73278 0.0689,-1.73277 -0.68414,0.1318 c -0.37628,0.0725 -2.085687,0.24219 -3.798697,0.37717 -1.71301,0.13498 -3.39231,0.29693 -3.731789,0.35991 -1.89224,0.35099 -5.32286,0.78131 -8.84714,1.10974 l -2.48811,0.23187 0.956969,-0.35885 0.95696,-0.35884 -0.95696,0.0771 -0.956969,0.0771 0.0631,0.38278 c 0.104741,0.63505 -0.682459,1.33975 -1.496639,1.33975 h -0.76557 l 0.47653,-0.57418 0.47653,-0.57418 h -1.183231 -1.18321 l 0.23791,0.61997 0.2379,0.61996 -1.589679,-0.15159 -1.589661,-0.1516 v 0.29721 c 0,0.16345 -0.301439,0.29455 -0.66987,0.29134 l -0.66988,-0.006 0.57418,-0.41304 0.57418,-0.41304 -0.70118,0.22751 c -0.38566,0.12514 -1.04178,0.2275 -1.458049,0.2275 h -0.756851 l 0.27313,0.44194 0.27313,0.44192 -0.47773,-0.29524 -0.47772,-0.29525 -2.35662,0.48449 c -1.29613,0.26646 -2.70113,0.66767 -3.12219,0.8916 -0.42106,0.22391 -0.91694,0.36313 -1.10193,0.30937 -0.50112,-0.14563 -4.58653,0.77494 -4.98209,1.12262 l -0.34223,0.3008 0.9164,-0.17784 0.91642,-0.17783 -0.76558,0.35428 -0.76556,0.35426 -0.79761,-0.18054 -0.79759,-0.18054 -2.34831,0.79109 c -1.291572,0.43511 -2.863712,0.79109 -3.493656,0.79109 h -1.145349 l -0.465203,0.498 -0.465202,0.498 -1.176729,-0.11805 -1.176729,-0.11806 0.765577,0.35878 0.765577,0.35878 -0.86128,0.0269 -0.861265,0.0269 v -0.38278 -0.38279 h -1.263187 -1.263201 l -0.48511,0.47848 -0.48511,0.47848 -0.54842,-0.74303 -0.548405,-0.74304 v 0.62931 0.62931 l -2.009623,-0.2227 c -1.105303,-0.12254 -2.173266,-0.37276 -2.373279,-0.55615 l -0.363641,-0.33345 h -1.837373 -1.837373 v -0.54227 c 0,-0.29826 0.21532,-0.62916 0.478484,-0.73535 l 0.478484,-0.19308 -0.478484,-0.0302 -0.478484,-0.0302 v -2.46863 -2.46863 l 1.280186,-0.97644 1.280186,-0.97644 3.026154,0.001 3.026154,0.001 1.424166,0.39553 1.424167,0.39552 0.585457,0.83588 0.585471,0.83586 v 0.99938 c 0,1.69759 0.537612,1.63787 10.71801,-1.19051 2.84218,-0.78964 8.3543,-2.13295 12.24915,-2.98514 l 7.08154,-1.54943 7.84712,-0.9509 c 4.31591,-0.52299 9.56964,-1.11801 11.67497,-1.32225 2.10533,-0.20423 4.301566,-0.55577 4.880526,-0.7812 l 1.05265,-0.40985 v -5.177093 -5.177084 h -0.8804 c -0.48423,0 -1.08712,-0.206705 -1.33975,-0.459344 l -0.45935,-0.459343 v -1.071802 -1.0718 l -0.47848,-0.0064 c -0.26316,-0.0035 -4.784816,-0.282118 -10.048126,-0.619206 -5.26331,-0.33709 -10.08641,-0.617812 -10.71802,-0.623828 -0.63159,-0.0061 -3.62039,-0.171667 -6.64177,-0.368112 l -5.49341,-0.357174 -0.84724,0.795925 -0.84721,0.795926 h -1.37794 -1.37795 l -1.15194,1.872137 -1.15193,1.872137 -1.29392,0.986916 c -0.71166,0.542803 -1.92506,1.250626 -2.69645,1.572937 l -1.402555,0.586024 -4.701433,-3.03e-4 -4.701418,-3.02e-4 -2.296717,-1.09998 -2.296716,-1.099979 -1.029783,-1.100739 c -0.566917,-0.602844 -1.570094,-2.253364 -2.229813,-3.665258 l -1.1995,-2.567082 -0.214582,-2.837324 -0.214582,-2.837324 0.681593,-2.166959 0.681593,-2.166957 1.225643,-1.723903 c 1.46103,-2.054975 3.698994,-3.774967 5.988882,-4.602767 l 1.669015,-0.603356 2.870888,-0.05324 2.870903,-0.05324 2.549377,1.193265 2.549376,1.193266 1.78923,1.649251 1.78922,1.64925 0.7411,1.452654 0.74108,1.452653 h 1.52711 1.52711 l 0.65551,0.765572 0.65549,0.765573 1.92456,0.01114 c 1.05851,0.0061 8.53258,-0.288525 16.60907,-0.654785 l 14.684515,-0.665925 0.11646,-0.397876 c 0.0641,-0.218833 0.21802,-0.862609 0.34213,-1.430615 l 0.22566,-1.032737 2.00734,-0.115624 2.00732,-0.115625 0.11574,-2.009626 0.11574,-2.009627 h 1.31974 1.31976 v 1.864683 1.864685 l 4.22677,0.273948 4.22676,0.273948 0.74945,0.804443 0.74946,0.804442 v 0.902131 0.902132 l 1.43544,-0.270069 c 0.7895,-0.148538 2.40183,-0.283536 3.58299,-0.299997 l 2.14753,-0.02993 0.53674,0.445456 0.53673,0.445454 6.69399,0.41157 c 3.68169,0.226363 8.2084,0.522867 10.05935,0.658898 l 3.36536,0.247328 1.03667,-0.534611 c 0.57018,-0.294036 2.17916,-1.685235 3.57552,-3.091554 l 2.53884,-2.556942 1.67181,-0.454028 1.6718,-0.454027 3.0623,0.188067 3.06229,0.188066 1.87396,0.881631 c 1.0307,0.484897 2.51338,1.496824 3.29486,2.248725 l 1.4209,1.367092 0.82009,2.21538 0.82009,2.215379 v 1.364684 1.364685 l -1.46609,3.118692 -1.4661,3.118694 -1.63846,1.472643 c -1.97462,1.774772 -3.3623,2.390031 -6.14736,2.725572 l -2.10532,0.253647 -2.5207,-0.786371 -2.52071,-0.786371 -1.49854,-1.085844 -1.49856,-1.085843 -0.75692,-1.406379 c -0.41631,-0.773508 -0.95291,-1.406377 -1.19245,-1.406377 -0.23952,0 -0.88259,-0.351678 -1.42902,-0.781506 l -0.99353,-0.781504 -3.36443,0.194887 c -1.85045,0.10719 -5.86213,0.315423 -8.91485,0.462748 -3.05272,0.147322 -6.32554,0.309067 -7.27293,0.359433 -0.94741,0.05036 -3.31588,0.107682 -5.26331,0.127358 l -3.54078,0.03579 v 1.173525 c 0,0.645437 -0.17831,1.506705 -0.39625,1.913929 l -0.39625,0.740408 h -2.09185 -2.09186 v 5.351717 5.351706 l 0.86126,0.18006 c 1.55214,0.32449 3.82594,0.60662 10.81724,1.34213 8.85273,0.93136 13.68571,1.85391 24.34164,4.64653 l 8.65093,2.26716 h 1.53528 1.53527 l 0.23454,-1.98031 0.23454,-1.98033 0.4121,-0.41209 0.41209,-0.41209 3.90442,0.013 3.90442,0.013 0.86127,0.47838 0.86127,0.47839 v 2.33674 2.33675 l 0.61157,0.44719 0.61157,0.44719 -0.55588,6.810941 -0.55589,6.81094 -0.53417,0.33824 c -0.29379,0.18602 -0.90257,0.34087 -1.35284,0.34409 l -0.81866,0.006 -0.23175,1.24405 c -0.12746,0.68424 -0.92006,8.04808 -1.76136,16.36411 -0.84129,8.31603 -2.55336,24.68013 -3.8046,36.36468 -1.25123,11.68455 -2.3232,21.86734 -2.38214,22.62843 l -0.10721,1.38382 2.66547,2.27986 c 1.46599,1.25393 4.56024,3.80114 6.8761,5.66047 2.31585,1.85934 4.42595,3.64561 4.68912,3.96951 l 0.47848,0.58891 v 3.52235 3.52236 l -0.50747,0.19473 c -0.27911,0.10706 -1.65714,0.31785 -3.06228,0.46833 -3.15065,0.33741 -3.15649,0.22603 0.17181,3.27002 l 2.74599,2.51143 -0.43529,4.585 -0.43529,4.58499 -0.61446,1.80335 c -0.33796,0.99185 -0.69794,1.80336 -0.79997,1.80336 -0.10199,0 -6.41615,1.36566 -14.0314,3.0348 -7.61526,1.66914 -16.77423,3.58225 -20.35327,4.25134 -3.57906,0.66909 -6.95657,1.44837 -7.5056,1.7317 l -0.99823,0.51517 0.18364,1.91119 0.18363,1.9112 -1.28907,1.17738 -1.28907,1.1774 -1.34141,0.37267 c -0.73777,0.20497 -2.22147,0.37365 -3.2971,0.37482 l -1.95567,0.001 -2.06358,-1.09075 c -1.13496,-0.59991 -2.75258,-1.47533 -3.59471,-1.94535 l -1.53115,-0.85459 -3.25367,0.19493 -3.25369,0.19494 -18.373726,3.29208 c -10.10555,1.81065 -19.66563,3.53288 -21.24463,3.82719 -1.579,0.2943 -3.75178,0.63689 -4.82844,0.76131 l -1.95756,0.22623 z m 5.62991,-1.22767 c 2.1695,-0.28167 37.749806,-6.80988 38.278596,-7.02329 0.3158,-0.12746 1.00481,-0.27049 1.53115,-0.31787 0.52633,-0.0474 2.31292,-0.29108 3.9702,-0.54157 l 3.01324,-0.45546 0.29751,0.48138 0.29751,0.48138 0.6128,-0.23516 0.61281,-0.23515 0.004,0.27507 c 0.001,0.15129 0.77714,0.61513 1.72253,1.03074 0.94541,0.41562 1.71892,0.86922 1.71892,1.00802 0,0.26286 1.50919,0.83799 2.00962,0.76582 0.15791,-0.0227 0.28709,0.14929 0.28709,0.38235 v 0.42374 l 0.56192,-0.21564 0.56193,-0.21562 0.22625,0.36607 c 0.12442,0.20133 0.65686,0.36607 1.18319,0.36607 h 0.95697 l -0.21561,-0.34887 -0.21561,-0.34887 1.62846,-0.29717 c 0.89567,-0.16346 1.75766,-0.26485 1.91556,-0.22532 0.15791,0.0395 0.28709,-0.11053 0.28709,-0.33351 v -0.40538 l 0.3784,0.23387 0.37841,0.23387 -0.2131,-0.55535 -0.21311,-0.55534 0.40888,-0.2527 c 0.22488,-0.13903 0.40888,-0.4346 0.40888,-0.65693 v -0.40422 l -1.02941,0.67451 -1.0294,0.67448 h -2.52296 -2.52295 l -1.13677,-0.61514 -1.13677,-0.61514 0.50107,-0.0153 0.50108,-0.0153 -0.17996,-0.29119 -0.17997,-0.29119 2.45409,0.36991 c 1.34975,0.20344 2.45409,0.4906 2.45409,0.63813 v 0.26824 l 0.86127,-0.21847 c 0.47369,-0.12008 1.24883,-0.46836 1.72254,-0.77377 l 0.86127,-0.55528 v -1.97613 -1.97613 l 0.5741,-0.81964 0.5741,-0.81964 -0.23226,-0.60528 -0.23228,-0.60528 h 0.99793 0.99791 v 0.61479 0.61478 l -0.95697,0.75274 -0.95695,0.75276 v 0.76037 0.76038 l 0.38901,-0.24043 0.38903,-0.24044 -0.22022,-0.35633 -0.22022,-0.35634 h 0.38278 c 0.21053,0 0.49503,0.18161 0.63221,0.40359 l 0.24944,0.40358 0.9606,-0.6294 0.96058,-0.6294 0.7265,0.18997 0.7265,0.18999 v -0.39158 -0.39156 l 0.94361,0.18038 0.9436,0.18038 0.11618,-0.34832 0.11617,-0.3483 1.96209,-0.0745 1.96208,-0.0745 -0.20528,-0.33851 -0.20528,-0.33852 1.18252,0.17356 1.18251,0.17356 -0.22555,-0.36496 -0.22555,-0.36495 1.19339,0.17516 1.19339,0.17515 0.10894,-0.32669 0.10894,-0.32668 1.77438,-0.0841 1.77439,-0.0842 -0.20829,-0.34259 -0.20829,-0.34259 1.01385,0.19381 1.01386,0.19382 v -0.37433 -0.37434 l 0.95696,0.18295 0.95697,0.18292 v -0.37434 -0.37435 l 0.76519,0.2001 0.7652,0.2001 0.23496,-0.38019 0.23499,-0.38021 0.70401,0.18412 0.70402,0.1841 0.11458,-0.34385 0.11459,-0.34385 1.62429,-0.094 1.6243,-0.094 0.001,-0.31115 c 10e-4,-0.17114 0.30342,-0.2805 0.67185,-0.24301 0.36843,0.0375 0.756,0.026 0.86127,-0.0253 0.10532,-0.0514 0.62203,-0.14381 1.14835,-0.20524 1.35547,-0.15835 2.03133,-0.33897 2.60214,-0.69544 l 0.49682,-0.31024 0.55584,0.2133 0.55586,0.21331 v -0.41541 -0.41539 l 0.95696,0.18294 0.95697,0.18293 v -0.32542 c 0,-0.17898 0.38757,-0.33031 0.86127,-0.3363 0.47369,-0.006 1.24883,-0.0187 1.72253,-0.0281 l 0.86128,-0.0172 v -0.38479 -0.38479 l 0.68322,0.21685 0.68325,0.21685 0.65775,-1.11349 0.65775,-1.11348 -0.21872,-0.57 -0.21874,-0.56999 0.41029,-0.25357 0.41028,-0.25358 -0.23259,-0.92674 -0.2326,-0.92676 0.39984,-1.14698 0.39984,-1.14699 -0.21873,-1.34788 -0.21872,-1.34788 -0.61981,-0.0116 -0.61978,-0.0116 0.76557,-0.59037 0.76557,-0.59036 -2.6795,-2.44947 c -1.47373,-1.34721 -2.80869,-2.45409 -2.96659,-2.45975 -0.1579,-0.006 -0.2871,-0.44091 -0.2871,-0.96724 v -0.95696 l 1.62685,-0.0706 c 2.67084,-0.11603 3.11973,-0.16695 3.9854,-0.45229 l 0.82743,-0.27273 0.25872,-1.88124 0.25874,-1.88122 -0.24661,-0.39905 -0.24662,-0.39902 -1.60511,0.17547 c -7.29065,0.79703 -9.20417,0.96296 -9.35583,0.8113 -0.20249,-0.20249 1.68756,-0.56732 3.99215,-0.77057 0.88023,-0.0777 1.78553,-0.25557 2.01178,-0.3954 0.22624,-0.13976 1.51321,-0.25422 2.85992,-0.25422 h 2.44858 l -0.0692,-0.45457 c -0.038,-0.25 -0.19895,-0.66235 -0.35767,-0.91632 l -0.28858,-0.46177 -0.62839,0.24113 -0.62836,0.24113 0.25345,-0.66051 0.25347,-0.66052 -0.37839,0.23387 -0.37841,0.23387 -0.006,-0.50108 -0.006,-0.50107 -0.36637,0.57417 -0.36636,0.57419 -1.63741,-1.6979 c -1.54584,-1.60295 -1.13664,-1.53812 0.75502,0.11965 l 0.86128,0.75476 -2e-5,-0.35382 c -1e-5,-0.19459 -0.59211,-0.82624 -1.31577,-1.40365 l -1.31577,-1.04985 -0.53683,0.20599 -0.53683,0.206 -0.49098,-0.59159 -0.49099,-0.59161 h 0.31336 c 0.17235,0 -0.27099,-0.60289 -0.98518,-1.33975 -0.71421,-0.73686 -1.48007,-1.33274 -1.70193,-1.32419 -0.22187,0.009 0.19298,0.52531 0.9219,1.14836 0.7289,0.62304 1.18344,1.1328 1.01009,1.1328 -0.41758,0 -4.06653,-3.02824 -4.92548,-4.0876 -0.37187,-0.45867 -1.27728,-1.20547 -2.01201,-1.65954 l -1.33585,-0.82562 0.25514,-0.44579 0.25515,-0.44578 -0.32006,0.29059 -0.32007,0.29059 -0.88966,-0.8358 c -0.48931,-0.45969 -0.89927,-1.02109 -0.91102,-1.24756 -0.0243,-0.46852 -3.8065,-3.54358 -4.84491,-3.93908 -0.37627,-0.14338 -3.66777,-2.6545 -7.31443,-5.58042 l -6.63029,-5.31985 -0.24877,0.24877 -0.24877,0.24877 0.4055,0.26627 c 0.22303,0.14646 3.10324,2.47905 6.40045,5.18358 l 5.99495,4.91729 -0.21029,0.34024 -0.21028,0.34025 1.26308,-0.21785 1.26307,-0.21785 -0.56307,0.39419 -0.56309,0.3942 -3.32649,0.006 -3.3265,0.006 -0.51246,-0.62132 -0.51246,-0.62132 0.83611,0.44546 c 3.23757,1.7249 4.07674,0.33621 1.35002,-2.23405 -1.22841,-1.15793 -1.87832,-1.85227 -1.44423,-1.54299 0.43408,0.30929 1.34649,1.07265 2.02756,1.69638 0.68109,0.62372 1.33428,1.03808 1.45155,0.9208 0.11733,-0.11734 -2.42089,-2.39971 -5.64036,-5.07209 l -5.85359,-4.85887 -0.47957,1.1747 -0.47959,1.1747 -0.47738,0.0354 c -0.26257,0.0195 -1.94154,0.0878 -3.73107,0.15176 l -3.25368,0.11632 1.14836,-0.29785 c 0.63159,-0.16383 1.75124,-0.3427 2.4881,-0.39747 l 1.33975,-0.0995 -1.53114,-0.27416 -1.53114,-0.27414 1.14836,-0.0586 c 0.63159,-0.0321 1.80314,-0.16673 2.60344,-0.29897 l 1.4551,-0.24047 -0.1153,-0.808 -0.11531,-0.80799 -0.95697,-0.0281 c -0.52633,-0.0155 -1.12922,0.0935 -1.33975,0.24188 -0.47472,0.33478 -4.58867,0.8078 -7.65572,0.88027 l -2.29672,0.0542 -0.28122,0.38279 -0.28123,0.38279 -0.006,-0.50109 -0.006,-0.50106 -0.43794,0.27067 c -0.24089,0.14887 -0.9299,0.25668 -1.53116,0.23958 l -1.09319,-0.0311 v 0.30432 0.30432 l -2.58381,0.25991 c -1.42109,0.14294 -3.22976,0.36101 -4.01925,0.48456 l -1.43545,0.22467 v 0.71665 0.71664 l 0.66988,0.0269 0.66987,0.0269 -0.76556,0.32898 -0.76558,0.32898 1.04065,0.0269 1.04065,0.0269 -0.22033,-0.57419 -0.22034,-0.57417 2.05058,0.0574 2.05058,0.0574 -1.72253,0.26781 -1.72254,0.2678 2.00962,0.0574 2.00964,0.0574 v 0.38279 0.38278 l -0.86128,0.0493 c -0.4737,0.0272 -1.65543,0.013 -2.62607,-0.0312 l -1.7648,-0.0806 -1.0104,0.93641 -1.0104,0.93641 v 0.86425 0.86423 l 0.6128,-0.50856 c 0.75341,-0.62527 1.61187,-0.77701 1.88606,-0.33338 l 0.20516,0.33199 0.57619,-0.22111 0.57616,-0.22109 0.75133,0.67993 c 0.41322,0.37395 0.75131,0.9062 0.75131,1.18276 v 0.50285 l 0.57418,-0.22034 0.57418,-0.22033 v 0.35414 0.35415 h 1.14836 1.14836 v -0.50459 -0.50458 h 0.89763 0.89764 l 0.671,0.74145 0.67101,0.74146 -0.25148,0.40689 -0.25149,0.40692 -1.41285,0.0453 c -0.77708,0.0249 -1.92962,0.17678 -2.56121,0.3375 l -1.14836,0.29221 7.04964,0.0453 c 3.87731,0.0249 6.96505,0.12991 6.86165,0.23327 -0.23588,0.23589 -6.29698,0.56274 -10.84901,0.58505 l -3.44507,0.0169 0.69279,0.52526 0.69277,0.52525 -0.40905,0.25282 -0.40906,0.25281 0.0696,2.59124 0.0696,2.59125 -0.66584,0.92485 -0.66585,0.92486 0.24259,-1.72254 c 0.13339,-0.94739 0.28824,-2.55723 0.34404,-3.57741 l 0.10142,-1.85488 -0.51,-0.1957 -0.50999,-0.1957 v -0.64807 c 0,-0.35643 0.15289,-0.8117 0.33975,-1.0117 0.18688,-0.20002 0.47047,-0.79428 0.63021,-1.32062 l 0.29045,-0.95696 -1.02553,1.2185 -1.02552,1.2185 -1.23153,0.38777 c -1.17337,0.36944 -4.40968,0.93279 -5.63356,0.98063 l -0.57418,0.0224 0.078,0.76558 c 0.043,0.42106 -0.0679,1.30883 -0.24608,1.97283 l -0.32406,1.20727 0.90438,0.17289 0.90436,0.17288 -0.18605,-0.30104 c -0.33196,-0.53712 0.63515,-0.83525 2.64444,-0.81518 l 1.96682,0.0197 -0.76557,-0.32646 c -0.42106,-0.17955 -0.65047,-0.33857 -0.50979,-0.35337 0.14063,-0.0147 0.55651,-0.14236 0.92406,-0.28334 l 0.66828,-0.25645 -0.30212,0.48884 -0.30213,0.48886 0.90921,-0.22904 0.90921,-0.22902 -1.37124,0.66961 -1.37126,0.66963 0.0679,0.92144 0.0678,0.92142 0.84359,0.6831 0.84358,0.68309 0.65117,-0.2083 0.65117,-0.20832 -0.49145,0.35381 -0.49144,0.3538 0.24905,0.64904 0.24906,0.64904 0.59099,-0.48825 0.59096,-0.48825 -0.52624,0.84505 -0.52624,0.84506 0.84754,0.90215 c 0.46614,0.49619 0.84752,1.02722 0.84752,1.18007 0,0.15285 0.31827,0.74465 0.70724,1.31508 0.38899,0.57044 1.11549,1.67012 1.61446,2.44373 l 0.90719,1.40654 0.33768,-0.20869 0.33767,-0.2087 -0.43444,0.81178 c -0.23895,0.44646 -0.34226,0.81175 -0.22959,0.81175 0.503,0 0.76982,-0.21905 0.66175,-0.54327 l -0.11733,-0.35189 0.59577,0.49446 c 0.32767,0.27194 0.59578,0.67242 0.59578,0.88994 0,0.2175 0.44018,0.97257 0.97817,1.67791 l 0.97816,1.28244 -0.23905,0.38678 -0.23904,0.38677 -0.41548,-0.25677 -0.41548,-0.25678 0.2628,0.42521 0.26279,0.4252 0.65762,-0.21078 0.65762,-0.21079 -0.57418,0.45211 -0.57418,0.4521 0.86179,-0.18891 0.8618,-0.1889 -0.22067,0.35708 -0.22069,0.35707 -1.0239,-0.10562 -1.0239,-0.10561 -0.27348,-0.93415 -0.27347,-0.93414 0.32656,-0.40561 0.32658,-0.4056 -0.67718,-1.24841 -0.6772,-1.24842 -0.21141,0.80845 -0.21142,0.80844 -0.41479,-0.25635 c -0.22813,-0.14106 -0.32775,-0.39719 -0.22137,-0.56932 0.10634,-0.17214 -0.0709,-0.53234 -0.39396,-0.80046 l -0.58739,-0.48748 0.20443,-0.53274 0.20443,-0.53272 -0.33653,0.20798 -0.33653,0.20799 -0.63196,-0.96449 -0.63195,-0.9645 0.26643,-0.43111 0.26645,-0.43112 -0.41811,0.25842 -0.41813,0.2584 -1.17217,-1.70368 c -1.24174,-1.80483 -1.45336,-2.35891 -0.73023,-1.91198 l 0.44192,0.27313 -0.27698,-0.44817 c -0.15234,-0.2465 -0.42262,-0.35817 -0.60063,-0.24816 l -0.32364,0.20003 -0.79827,-1.29163 c -0.43905,-0.71039 -0.79826,-1.41064 -0.79826,-1.55611 v -0.26451 l 0.38278,0.23658 c 0.80153,0.49537 0.33013,-0.26957 -0.96304,-1.56275 l -1.34583,-1.34582 -0.3753,0.23195 -0.3753,0.23196 0.60468,1.16934 c 0.33258,0.64312 2.82963,4.60469 5.549,8.80346 2.71937,4.19876 4.9443,7.79687 4.9443,7.9958 0,0.19893 0.18242,0.36167 0.40538,0.36167 h 0.40538 l -0.23658,0.3828 -0.23657,0.38278 h 1.00214 1.00215 l -0.20703,-0.33498 -0.20703,-0.33498 1.81129,0.17264 1.81127,0.17264 -0.43858,-0.31614 -0.43859,-0.31615 2.35252,-0.0418 c 2.01101,-0.0357 8.89243,-0.98286 17.66396,-2.43119 2.27686,-0.37595 6.73111,-1.01599 9.45233,-1.35824 0.77761,-0.0978 3.01691,-0.4378 4.97623,-0.75556 1.9593,-0.31777 3.73464,-0.57321 3.94517,-0.56765 l 0.38278,0.0101 -0.57621,0.33774 c -0.52766,0.3093 -5.36879,1.16924 -7.65369,1.35953 -1.16799,0.0972 -4.88326,0.6093 -5.93318,0.81767 -0.42106,0.0836 -3.66174,0.57675 -7.20149,1.09597 -3.53975,0.51921 -6.56085,1.02125 -6.71356,1.11562 -0.15272,0.0943 -1.32013,0.26318 -2.59425,0.3751 -1.27414,0.11198 -3.09582,0.37814 -4.0482,0.59156 -0.95237,0.21344 -3.17605,0.55801 -4.94152,0.76572 -5.23087,0.61545 -6.52667,0.80956 -9.14312,1.36967 -1.36846,0.29295 -5.41643,0.99182 -8.99547,1.55307 -30.825217,4.83377 -43.583497,7.25209 -44.842447,8.49986 l -0.66626,0.66033 0.26567,-0.70118 c 0.14612,-0.38565 0.26567,-1.1279 0.26567,-1.64943 v -0.94826 l 0.35009,0.21638 0.35009,0.21636 0.12833,-0.38363 0.12832,-0.38364 5.35901,-0.92538 c 2.94745,-0.50897 6.04802,-1.01701 6.89015,-1.12897 2.5766,-0.34258 16.13506,-2.53199 22.0102,-3.55421 3.05273,-0.53114 6.842297,-1.10867 8.421297,-1.28341 3.65342,-0.40429 12.22297,-1.85471 13.13561,-2.22322 l 0.69508,-0.28067 -3.79646,-4.72575 c -2.08806,-2.59916 -4.09004,-5.22277 -4.44888,-5.83022 -1.08217,-1.83196 -0.13483,-1.21352 1.4087,0.91968 2.14608,2.96583 7.10517,8.86397 7.58805,9.02492 l 0.42089,0.14034 -0.48219,-0.90557 c -0.2652,-0.49806 -0.77951,-1.33619 -1.14289,-1.86252 -3.64423,-5.27844 -8.65889,-13.43076 -8.85288,-14.39214 l -0.14689,-0.7279 -0.83029,0.0284 -0.83029,0.0284 0.16806,-0.27193 c 0.0924,-0.14955 -0.17476,-0.36156 -0.59375,-0.47114 l -0.76179,-0.1992 0.21451,0.34709 0.21451,0.34708 -0.30968,-0.006 c -0.17032,-0.003 -0.56806,-0.17283 -0.88386,-0.37692 l -0.57417,-0.37107 0.52534,-0.006 0.52536,-0.006 -0.4619,-0.55655 -0.46189,-0.55655 -0.0291,-1.83587 c -0.0159,-1.00972 0.099,-2.2317 0.25526,-2.71549 l 0.28428,-0.87964 -0.44241,-0.53306 -0.44238,-0.53305 -0.50664,0.1944 -0.50662,0.19441 -1.20113,-1.17412 -1.201117,-1.17414 -1.03946,-0.0269 c -0.5717,-0.0148 -1.38397,-0.16856 -1.80504,-0.34171 l -0.76557,-0.31478 0.57784,-0.23812 0.57784,-0.23811 1.81457,0.33899 1.814577,0.339 v -0.26868 c 0,-0.14778 -0.38758,-0.44846 -0.861277,-0.66821 l -0.861259,-0.3995 -1.722531,0.0477 -1.72254,0.0477 v 0.44659 c 0,0.24561 -0.1292,0.57577 -0.2871,0.73367 -0.1579,0.1579 -0.28708,0.61305 -0.28708,1.01146 v 0.72435 l -0.42097,-0.26017 -0.42098,-0.26018 0.43445,0.81177 c 0.23893,0.44647 0.52466,0.81176 0.63495,0.81176 0.11024,0 0.0712,-0.21531 -0.087,-0.47847 l -0.28746,-0.47848 0.64344,0.52184 0.64345,0.52186 -0.21363,0.34566 -0.21363,0.34565 -0.35633,-0.22022 -0.35635,-0.22023 -0.0521,0.88387 -0.0521,0.88385 -0.16076,-0.82225 -0.16078,-0.82225 -0.83976,-0.25271 -0.83976,-0.25272 0.65064,-0.26479 0.65064,-0.26478 -1.370389,-1.64866 -1.370371,-1.64866 -0.54935,0.21081 -0.54935,0.21079 0.25744,-0.81109 0.25743,-0.81111 -0.42379,0.26192 c -0.23309,0.1441 -0.4238,0.49004 -0.4238,0.76888 v 0.50694 l -0.861259,0.2308 c -0.473701,0.12688 -1.40005,0.23317 -2.05857,0.23603 -0.658531,0.003 -1.81203,0.26208 -2.563341,0.576 l -1.36602,0.57076 -0.23183,-0.37512 -0.23183,-0.37511 -0.84131,0.54176 -0.8413,0.54177 -3.18621,0.45911 -3.1862,0.45911 -1.59862,-0.21731 -1.59863,-0.21731 -4.40204,0.54533 c -2.42112,0.29994 -5.60514,0.70888 -7.07561,0.90875 -2.4911,0.33861 -3.2686,0.29675 -2.82008,-0.15177 0.10142,-0.10142 1.12057,-0.33964 2.26482,-0.52944 l 2.08048,-0.34508 -1.33976,-0.0163 c -1.4654,-0.0179 -5.199461,0.56696 -4.11495,0.64454 0.36843,0.0263 0.66988,0.22016 0.66988,0.43069 v 0.38279 h -1.12951 c -0.980188,0 -2.719732,0.28243 -6.047721,0.98192 l -0.86128,0.18102 v 0.53499 c 0,0.29424 -0.215305,0.62187 -0.478484,0.72806 l -0.478469,0.19307 0.629553,0.0302 0.629568,0.0302 -0.278716,1.24406 -0.278731,1.24406 1.618668,3.73437 1.618653,3.73436 -0.35943,0.22215 -0.359431,0.22214 -0.519847,-0.43144 c -0.285921,-0.2373 -0.631275,-0.87534 -0.767443,-1.41787 -0.136139,-0.54255 -0.342142,-0.89187 -0.457723,-0.77629 -0.115595,0.1156 0.141637,1.1503 0.571525,2.29937 0.42993,1.14906 0.707316,2.16358 0.616417,2.25448 -0.22322,0.22322 1.320781,4.60602 1.79222,5.08739 l 0.374896,0.38278 -0.279121,-0.73267 -0.279122,-0.73267 0.407477,0.25183 c 0.513177,0.31717 4.402081,8.33661 4.160071,8.57862 -0.0982,0.0982 -0.973473,-1.34644 -1.944937,-3.21045 -0.971464,-1.86399 -1.650684,-3.04459 -1.50938,-2.62352 0.98149,2.92472 2.585141,6.96506 3.798287,9.56966 l 1.42632,3.06228 0.13831,1.72254 c 0.0761,0.94739 0.0437,1.46416 -0.0719,1.14836 -0.1156,-0.3158 -0.31088,-0.83256 -0.43393,-1.14836 -0.12297,-0.31579 -0.23857,-0.6743 -0.25675,-0.79665 -0.0182,-0.1224 -0.40991,-1.06976 -0.87051,-2.10533 -0.4606,-1.03557 -1.245959,-2.94684 -1.745247,-4.24727 l -0.907792,-2.36442 -0.521395,0.32225 -0.521409,0.32225 0.691243,2.55367 0.691258,2.55368 0.724286,0.67476 0.724287,0.67478 -0.266606,0.69476 -0.266607,0.69476 0.443453,-0.27408 0.44345,-0.27407 -0.20375,0.53097 -0.20374,0.53096 1.51742,3.13784 1.51741,3.13783 0.20595,-0.68233 0.20593,-0.68232 -0.10706,1.22937 -0.10706,1.22937 0.44657,0.17137 c 0.24561,0.0942 3.44458,-0.31458 7.108789,-0.90849 3.66421,-0.59392 13.29397,-2.13576 21.399481,-3.42632 8.10549,-1.29055 18.182316,-2.94755 22.392976,-3.68224 4.21065,-0.73469 12.7372,-2.20524 18.94791,-3.26791 11.84491,-2.02671 12.71565,-2.17878 24.15705,-4.21894 l 7.12308,-1.27015 1.10682,0.53571 c 0.60876,0.29464 1.22982,0.50772 1.38014,0.4735 l 0.27332,-0.0622 -0.2073,0.54024 -0.20731,0.54023 0.89095,0.46235 c 0.49003,0.25429 1.51207,1.0697 2.2712,1.812 l 1.38024,1.34964 -0.60405,0.70547 -0.60403,0.70547 h -0.68268 c -0.37546,0 -4.0837,0.67266 -8.24051,1.4948 -4.15684,0.82216 -9.19428,1.78262 -11.19434,2.13436 -2.00006,0.35175 -4.84224,0.88311 -6.31596,1.18078 -1.47373,0.29769 -6.64134,1.2381 -11.48358,2.08981 -4.84225,0.85171 -10.78501,1.89724 -13.20613,2.32339 -7.00214,1.23249 -8.52718,1.4947 -9.95243,1.71117 -0.73687,0.11198 -1.5894,0.28906 -1.89453,0.39364 -0.47797,0.16383 -12.004976,2.187 -18.393136,3.2283 -1.15792,0.18875 -3.655601,0.61709 -5.5504,0.95185 -16.66141,2.94378 -19.71347,3.31006 -19.71347,2.36594 0,-0.23972 -0.71669,-1.92795 -1.59264,-3.75159 l -1.59264,-3.31573 -1.167127,0.33472 -1.167122,0.33474 -0.323826,-0.32383 -0.323812,-0.32382 1.169653,-0.48449 c 1.729563,-0.7164 1.693873,-1.2536 -0.376068,-5.66002 l -1.485885,-3.1631 -0.34751,0.10083 c -0.19113,0.0554 -0.675661,-0.30027 -1.076714,-0.79049 l -0.729191,-0.8913 -2.192319,-0.50961 -2.192319,-0.50962 v 0.34825 0.34826 h -1.913921 -1.913935 v -0.35472 c 0,-0.19509 0.21532,-0.42837 0.478484,-0.51837 0.263164,-0.09 0.07653,-0.0958 -0.414856,-0.013 l -0.893354,0.15094 0.246064,-0.39813 c 0.135271,-0.21898 0.494268,-0.39813 0.797651,-0.39813 h 0.551588 v -0.53268 -0.53269 l -0.956968,-0.24018 c -0.989099,-0.24825 -1.242266,-0.76967 -0.574186,-1.18256 0.210531,-0.13006 0.370687,-0.52786 0.355886,-0.88386 l -0.02691,-0.64729 -0.328977,0.76557 -0.328976,0.76558 -0.03284,-0.76558 -0.0327,-0.76557 -0.371063,0.57418 -0.371062,0.57418 -0.0058,-1.05266 -0.0058,-1.05266 h -0.355452 c -0.195485,0 -0.613958,0.25851 -0.929914,0.57448 l -0.57449,0.57448 0.187238,2.96628 c 0.103009,1.63147 0.257652,3.18162 0.343734,3.44479 l 0.156495,0.47848 h -0.370773 c -0.20392,0 -0.370774,0.25838 -0.370774,0.57417 0,0.3158 0.172251,0.57419 0.382782,0.57419 h 0.382795 l -0.0058,0.86127 -0.0058,0.86126 -0.371062,-0.57417 -0.371063,-0.57419 -0.0058,1.63914 -0.0058,1.63913 0.58877,1.40915 c 0.323826,0.77502 0.863609,1.71283 1.199515,2.084 l 0.610746,0.67486 0.331624,-0.20496 0.331624,-0.20496 v 0.37497 0.37495 l 1.05267,0.22533 c 0.578961,0.12399 2.751532,0.30278 4.827923,0.39743 l 3.775266,0.17207 0.948056,0.62119 0.948056,0.6212 0.782417,1.88271 c 0.430321,1.03548 0.894135,1.8827 1.030679,1.8827 0.136574,0 0.283448,0.42513 0.326445,0.94473 0.04297,0.5196 0.597338,2.04349 1.231848,3.38644 0.63452,1.34296 1.15366,2.59396 1.15366,2.78004 0,0.18608 0.3731,1.23848 0.8291,2.33868 l 0.8291,2.00035 0.31926,-0.19731 0.31925,-0.19731 v 0.94824 c 0,0.52154 0.10026,1.20956 0.22285,1.52894 l 0.22282,0.5807 1.97819,-0.18884 c 1.088,-0.10388 2.40882,-0.24477 2.93515,-0.3131 z m 86.983006,-44.30491 c -0.25303,-0.67034 -0.37691,-1.30195 -0.27531,-1.40355 0.10157,-0.10156 0.18474,0.0373 0.18474,0.30872 v 0.49346 l 0.58158,-0.48267 0.58158,-0.48268 -0.22979,-1.22484 -0.22979,-1.22487 0.60518,-1.44838 c 0.33284,-0.79661 0.60516,-2.03564 0.60516,-2.7534 v -1.30501 l 0.60386,-0.23173 0.60386,-0.23172 0.56705,0.56705 0.56704,0.56704 -0.44205,4.10581 c -0.24313,2.25819 -0.34003,4.20784 -0.21532,4.33255 0.26934,0.26933 -1.87406,1.63304 -2.56673,1.63304 h -0.48101 z m -98.858846,-2.44256 c -0.488655,-1.28525 -0.516881,-1.23612 0.588929,-1.02474 l 0.962262,0.18396 2.578519,-0.60548 c 3.00756,-0.70622 15.01767,-2.57011 18.08135,-2.8061 1.15792,-0.0891 3.31109,-0.39698 4.78482,-0.68396 1.47374,-0.28697 3.97141,-0.71093 5.5504,-0.94211 1.57899,-0.23119 4.04778,-0.62116 5.48618,-0.86661 l 2.61531,-0.44627 0.36726,0.54582 0.36725,0.54583 -0.11169,-0.759 -0.11168,-0.75898 0.80355,-0.0473 0.80357,-0.0473 0.49074,0.80623 c 0.26992,0.44343 0.371379,0.69512 0.22547,0.55932 l -0.265261,-0.24691 -0.885529,0.82109 -0.885521,0.8211 -1.48327,-0.068 c -1.97289,-0.0904 -1.949379,-0.0813 -1.29186,-0.50617 l 0.57417,-0.37106 -0.71083,-0.006 -0.71082,-0.006 0.20959,0.54619 0.20959,0.54619 -0.59004,0.4897 c -0.32452,0.26933 -0.87411,0.5294 -1.2213,0.57792 l -0.63126,0.0882 0.74303,-0.54995 c 0.91483,-0.67708 0.80007,-0.67537 -3.23114,0.048 -1.78953,0.32115 -4.25947,0.66179 -5.48877,0.75698 -1.2293,0.0952 -2.40119,0.27574 -2.60421,0.4012 -0.20301,0.12544 -1.09201,0.30258 -1.97555,0.39358 -0.88355,0.091 -2.38158,0.32803 -3.32899,0.52676 -0.94739,0.19872 -3.76119,0.62699 -6.2529,0.9517 -2.49169,0.32472 -4.81711,0.73347 -5.1676,0.90833 -0.72521,0.36182 -2.60794,0.31909 -2.99499,-0.068 l -0.25797,-0.25797 h 0.82938 0.82936 v -0.36018 c 0,-0.19812 -0.17225,-0.46667 -0.38278,-0.59677 l -0.38279,-0.23659 v 0.44689 0.44687 l -0.98903,-0.24823 -0.98904,-0.24824 0.24606,0.39813 0.24605,0.39812 -0.88386,0.0382 -0.88385,0.0382 0.95695,0.27403 0.95697,0.27401 -1.05266,0.20893 -1.05267,0.20891 v -0.52109 c 0,-0.2866 -0.1824,-0.52111 -0.40536,-0.52111 H 55.20732 l 0.224695,0.36359 0.224708,0.36358 -0.751123,0.40199 c -1.052844,0.56347 -1.156272,0.52542 -1.57651,-0.57988 z m -1.033327,-2.48367 -0.192606,-0.7365 -0.434966,0.21626 c -0.23922,0.11893 -0.02836,-0.14134 0.468718,-0.57848 0.497017,-0.43711 1.186032,-0.80792 1.53114,-0.82402 0.345108,-0.0161 0.88586,-0.0971 1.201657,-0.17982 0.315796,-0.0828 2.296714,-0.50307 4.402044,-0.93397 2.10531,-0.4309 4.32944,-1.02288 4.9425,-1.31553 l 1.11465,-0.53208 0.48036,0.18433 c 0.26419,0.10142 1.48513,-0.0858 2.71321,-0.41587 1.22806,-0.3301 4.21065,-1.04412 6.62798,-1.58669 2.41732,-0.54258 4.57286,-1.13401 4.79009,-1.31431 0.21723,-0.18027 1.11817,-0.40009 2.00209,-0.48849 0.88392,-0.0884 1.82894,-0.33773 2.10006,-0.55408 0.2711,-0.21634 1.3542,-0.51734 2.40686,-0.66886 1.05267,-0.15153 2.08618,-0.41297 2.29671,-0.58098 0.21053,-0.16802 1.41631,-0.51568 2.67951,-0.77261 1.26319,-0.25692 2.57648,-0.61455 2.9184,-0.79475 l 0.6217,-0.3276 0.5903,0.65756 0.59031,0.65755 -0.20397,1.05267 c -0.21477,1.10844 -0.49073,1.28453 -1.0908,0.69602 l -0.36366,-0.35665 -3.06228,0.75799 c -1.68426,0.4169 -3.49293,0.8453 -4.01926,0.95201 -0.52632,0.10677 -3.40487,0.79133 -6.39676,1.52136 -5.44797,1.32934 -6.9536,1.67493 -11.59419,2.66118 -1.36845,0.29084 -3.77344,0.81445 -5.34442,1.16358 l -2.85632,0.63476 -0.14221,-0.4265 c -0.22638,-0.67912 -0.76421,-0.49365 -0.70572,0.24337 l 0.0531,0.66987 -1.53115,0.12124 c -0.84213,0.0667 -1.69479,0.28203 -1.89478,0.47849 -0.20002,0.19646 -0.83581,0.3572 -1.41287,0.3572 -0.577067,0 -1.142819,0.15147 -1.257228,0.33658 -0.114438,0.18513 -0.574244,0.43237 -1.021869,0.54941 l -0.813855,0.21283 z m 12.687937,36.22024 c 1.70066,-0.30123 3.91032,-0.65629 4.91035,-0.78903 l 1.81823,-0.24133 v -0.31902 -0.31901 l -1.33975,0.30215 -1.33975,0.30217 v -0.34248 c 0,-0.18836 0.27947,-0.34247 0.62105,-0.34247 h 0.62104 l -0.47651,-0.57419 -0.47653,-0.57417 h 0.35309 c 0.19421,0 0.51818,0.16508 0.71995,0.36684 l 0.36685,0.36685 0.49446,-0.30559 c 0.27196,-0.16807 0.52214,-0.67316 0.55598,-1.12244 l 0.0615,-0.81683 0.53609,-0.20573 0.5361,-0.20571 -0.28815,0.67421 c -0.15848,0.37082 -0.36946,1.14792 -0.46885,1.72689 l -0.1807,1.05265 h 1.0323 1.03231 l -0.1673,-0.47848 -0.16732,-0.47849 -0.72421,0.13412 -0.72423,0.13411 0.65069,-0.71901 0.65071,-0.71902 0.93957,-0.0777 0.9396,-0.0778 -0.0877,0.59761 c -0.0482,0.32869 -0.33396,0.75345 -0.63495,0.94392 l -0.54724,0.34632 0.51931,0.006 c 1.12039,0.013 7.53936,-1.26114 7.86895,-1.56153 l 0.34975,-0.31876 -1.49811,0.18451 -1.49811,0.1845 0.76557,-0.36289 c 0.42107,-0.19958 1.1675,-0.375 1.65875,-0.38978 l 0.89316,-0.0269 -0.17544,-0.47848 c -0.0965,-0.26317 -0.36923,-0.43542 -0.60608,-0.38279 -0.23684,0.0527 -0.43064,-0.0835 -0.43064,-0.3026 v -0.39829 l 1.43545,0.0336 c 0.7895,0.0185 1.90915,-0.0807 2.48811,-0.22052 l 1.05266,-0.25406 v 0.46837 0.46836 l -0.49852,-0.19131 -0.49854,-0.1913 -1.3197,0.58595 -1.31971,0.58594 1.17372,0.36518 1.17371,0.36517 2.65415,-0.57353 2.65415,-0.57354 -0.85697,-0.27074 -0.85695,-0.27076 0.19933,-0.32255 0.19935,-0.32256 0.62838,0.24113 0.62838,0.24113 -0.25347,-0.66051 -0.25346,-0.66052 0.4045,0.25 0.4045,0.24999 -0.19112,0.49804 c -0.10518,0.27391 -0.0964,0.59281 0.0195,0.70862 0.25767,0.25768 1.26781,-0.7063 1.26781,-1.20989 0,-0.19978 0.24303,-0.56496 0.5401,-0.8115 l 0.5401,-0.44824 0.24869,0.40241 0.24871,0.40241 0.74235,-0.39729 0.74234,-0.39729 v 0.39625 c 0,0.39344 -0.25188,0.47367 -1.72255,0.54864 l -0.76556,0.0391 -0.12225,0.86126 c -0.1454,1.02373 -0.0742,1.0344 1.76145,0.26402 l 1.423149,-0.59726 1.430201,-0.022 1.43019,-0.022 -0.24566,-0.39748 -0.24566,-0.3975 1.27731,0.25547 1.277316,0.25547 1.27032,-0.23831 1.2703,-0.23832 v -0.53158 c 0,-0.29236 0.16686,-0.53157 0.37078,-0.53157 h 0.37077 l -0.222,0.57851 -0.22199,0.57853 0.61679,-0.23669 c 0.33923,-0.13021 0.61681,-0.39052 0.61681,-0.57852 v -0.34183 h 0.95695 c 0.52634,0 0.95697,-0.13021 0.95697,-0.28939 v -0.2894 l 2.66571,0.11878 2.66571,0.11893 0.87507,-0.47036 0.87505,-0.47034 1.72254,-0.0652 c 0.94739,-0.0359 2.1101,-0.1897 2.58381,-0.34187 l 0.86127,-0.27668 v -0.52686 -0.52686 l -1.77101,0.78341 -1.77103,0.7834 -0.90848,-0.41394 -0.90849,-0.41393 v 0.33362 c 0,0.1835 -0.29619,0.44729 -0.6582,0.58621 l -0.65821,0.25257 0.26194,-0.26195 0.26197,-0.26195 -0.3828,-0.71524 -0.38278,-0.71525 h 0.61281 c 0.33705,0 0.95946,0.18552 1.38313,0.41227 l 0.77032,0.41225 0.63997,-0.27869 c 0.70331,-0.30626 1.2821,-0.48199 2.20172,-0.66847 0.33263,-0.0674 0.74587,-0.35092 0.91833,-0.62995 l 0.31354,-0.50732 0.65593,0.2517 0.65592,0.25169 -0.47277,0.56966 -0.47277,0.56965 0.33396,0.0294 c 0.18368,0.016 0.63541,0.0869 1.00384,0.15752 0.77793,0.14891 0.86656,-0.21981 0.21053,-0.87584 l -0.45934,-0.45934 h 0.42803 c 0.23542,0 0.74358,-0.10243 1.12922,-0.2275 l 0.70118,-0.2275 -0.56309,0.39809 -0.56309,0.39807 0.29494,0.29495 0.29495,0.29493 2.50156,-0.0741 c 2.49562,-0.0739 8.50945,-1.06021 8.91055,-1.46131 0.22802,-0.228 -2.23089,0.0174 -3.79428,0.37856 -0.52632,0.12167 -1.87229,0.28487 -2.99104,0.36277 l -2.03407,0.14164 0.38036,-0.38037 c 0.2092,-0.2092 0.81325,-0.42789 1.34234,-0.48596 0.52908,-0.058 1.14405,-0.21814 1.36662,-0.35568 l 0.40465,-0.2501 v 0.365 0.36498 l 1.55881,-0.46025 1.5588,-0.46027 0.34926,-0.55201 0.34927,-0.55202 0.006,0.39499 0.006,0.39499 1.02904,0.0852 1.02903,0.0852 0.29679,-0.48016 0.29678,-0.48016 1.25798,-0.0922 c 0.6919,-0.0506 2.29151,-0.22292 3.55471,-0.38278 l 2.29672,-0.29065 -0.0425,-0.60608 -0.0425,-0.60607 h 0.48452 0.48451 l -0.19584,0.51037 -0.19585,0.51039 0.32804,-0.006 c 0.18042,-0.003 0.56543,-0.15622 0.85556,-0.33999 l 0.52753,-0.33412 -0.24667,-0.39913 -0.24669,-0.39915 0.39528,-0.24428 0.39527,-0.2443 -0.25678,-0.41548 -0.25679,-0.41548 0.44194,0.27312 0.44193,0.27313 v -0.40538 -0.40536 l 0.66987,0.0302 0.66988,0.0302 -0.47849,0.19307 c -0.26316,0.10619 -0.47847,0.44727 -0.47847,0.75795 v 0.56487 l -0.38279,-0.23657 -0.38279,-0.23657 v 0.75232 0.75233 l 0.72111,-0.18857 0.7211,-0.18859 -0.18013,-0.82825 -0.18012,-0.82825 0.37414,0.52907 0.37415,0.52906 0.25902,-0.81616 0.25904,-0.81614 h 0.54838 c 0.68661,0 0.72442,0.66596 0.0473,0.8332 l -0.5011,0.1237 0.214,0.83443 0.21399,0.83441 0.76558,-0.59883 0.76558,-0.59882 -0.70186,0.24316 -0.70187,0.24314 0.16146,-0.47875 0.16147,-0.47874 0.92319,-0.0399 c 0.50775,-0.022 1.57155,-0.17081 2.364,-0.33072 l 1.44084,-0.29072 0.36576,-0.62627 0.36576,-0.62625 0.0116,0.64727 c 0.006,0.35602 0.20234,0.76516 0.43543,0.90921 l 0.4238,0.26192 -0.27341,-0.86144 -0.27341,-0.86145 0.51949,0.32491 c 0.7413,0.46364 1.55525,0.42407 2.40454,-0.1169 l 0.73669,-0.46923 0.43525,0.84841 0.43524,0.84841 -0.39528,0.26627 c -0.2174,0.14646 -0.29158,0.36998 -0.16484,0.49671 0.12673,0.12674 0.49701,-0.0362 0.82284,-0.36197 l 0.59241,-0.5924 h 0.96171 c 0.52895,0 1.06818,-0.17225 1.19829,-0.38279 0.13006,-0.21054 0.50589,-0.38279 0.83504,-0.38279 h 0.59846 l -0.47653,0.57419 -0.47652,0.57417 h -1.0789 -1.0789 l -0.26187,0.42372 -0.26188,0.42371 1.10056,-0.22291 c 0.6053,-0.12269 2.25761,-0.41612 3.67178,-0.65223 l 2.57123,-0.42929 -1.80566,-1.44549 c -0.99312,-0.79502 -2.31158,-1.98411 -2.92994,-2.64241 -0.61836,-0.65828 -1.25889,-1.19689 -1.42343,-1.19689 h -0.29916 l 0.22034,0.57418 0.22033,0.57417 h -0.42374 c -0.23306,0 -0.42374,-0.14351 -0.42374,-0.31898 0,-0.17544 -0.25838,-0.31899 -0.57419,-0.31899 -0.31579,0 -0.57417,0.14352 -0.57417,0.31899 0,0.17544 0.16684,0.31898 0.37077,0.31898 h 0.37078 l -0.22465,0.58543 -0.22465,0.58543 -0.43322,-0.5899 c -0.23827,-0.32445 -0.82162,-0.66429 -1.29635,-0.7552 l -0.86313,-0.16531 0.20207,1.03106 0.20205,1.03104 -0.39479,-0.90328 -0.39479,-0.90326 -1.43224,0.27964 c -1.52882,0.29849 -2.53992,0.44249 -3.65906,0.52107 l -0.69567,0.0489 0.24298,0.76558 0.24298,0.76556 h -0.40857 c -0.22473,0 -0.36552,-0.19175 -0.31289,-0.42611 l 0.0956,-0.42611 -0.86127,-0.14566 -0.86126,-0.14567 v 0.80413 0.80412 l 0.5425,-0.20817 0.5425,-0.20819 0.21106,0.55001 0.21105,0.55001 h -0.53482 c -0.29416,0 -0.78499,-0.25017 -1.09078,-0.55594 l -0.55594,-0.55596 -0.23697,0.23697 -0.23696,0.23696 -0.0269,-0.54229 -0.0269,-0.54227 -0.32897,0.76556 -0.329,0.76558 -0.0269,-0.72028 -0.0269,-0.72028 -1.43546,0.2193 c -0.78949,0.12066 -2.44573,0.39588 -3.68053,0.61169 l -2.24508,0.39239 -0.51794,0.68277 -0.51793,0.68277 -0.0116,-0.71083 -0.0116,-0.71083 -0.66988,0.26934 c -0.36843,0.14813 -0.84214,0.30515 -1.05267,0.34891 -0.21053,0.0438 -1.00145,0.28987 -1.7576,0.54689 l -1.37483,0.46727 -1.24828,-0.10533 -1.24828,-0.10532 -0.68049,1.24842 -0.68049,1.2484 -0.22199,-0.84891 c -0.12211,-0.4669 -0.14265,-0.92819 -0.0457,-1.02511 0.0969,-0.0969 0.17621,0.0349 0.17621,0.29297 v 0.46916 l 0.3828,-0.23657 c 0.21053,-0.13006 0.38278,-0.39867 0.38278,-0.59677 v -0.3602 h -0.76558 -0.76556 l -0.0302,0.66988 -0.0302,0.66987 -0.19307,-0.47848 -0.19308,-0.47847 h -0.92506 c -0.50879,0 -0.92506,0.13643 -0.92506,0.30318 0,0.16675 -0.47371,0.31558 -1.05267,0.3307 -0.57896,0.0152 -1.74167,0.1527 -2.58381,0.3057 -0.84213,0.15299 -1.86771,0.27062 -2.27907,0.26138 -0.41137,-0.009 -0.96293,0.16163 -1.22569,0.37971 l -0.47776,0.3965 -0.73861,-0.23443 -0.73861,-0.23442 -0.23104,0.6021 -0.23105,0.60209 -0.77692,-0.4158 -0.77693,-0.41581 -0.2174,0.56652 -0.21739,0.56652 -0.4931,-0.18922 -0.49311,-0.18922 -0.22877,0.59618 -0.22878,0.59617 h -0.78959 -0.78961 l -0.214,-0.55769 -0.21401,-0.55768 -1.20942,0.23637 c -0.66519,0.13006 -1.59787,0.48745 -2.07262,0.79435 l -0.86319,0.558 -0.51178,-0.42475 c -0.28148,-0.23361 -0.58831,-0.34822 -0.68183,-0.2547 -0.0935,0.0935 -0.85281,0.27414 -1.68731,0.40139 -4.456596,0.67951 -5.435556,0.87354 -6.397796,1.26809 l -1.05267,0.43161 -0.0302,-0.46901 -0.0302,-0.46901 -0.18591,0.45697 -0.18589,0.45699 -0.549451,-0.21085 -0.54946,-0.21084 -0.0444,0.71083 -0.0444,0.71082 -0.17506,-0.66987 c -0.18537,-0.70939 -0.88448,-0.9363 -0.88448,-0.28708 0,0.21053 -0.258389,0.38278 -0.574189,0.38278 h -0.574171 l -0.0116,0.47848 -0.0116,0.47849 -0.562,-0.74304 -0.56201,-0.74304 -0.006,0.74304 -0.006,0.74304 -0.32329,-0.50998 -0.32329,-0.50998 -1.79912,0.26979 -1.79914,0.26979 0.20234,0.52728 0.20233,0.52727 h -0.34819 c -0.19149,0 -0.44785,-0.16128 -0.5697,-0.35843 -0.12182,-0.19714 -0.56687,-0.33241 -0.98897,-0.30061 l -0.76746,0.0579 0.1825,0.47556 0.18249,0.47558 -0.93865,-0.35687 -0.93864,-0.35687 v 0.42018 0.42018 l -0.5137,-0.42634 c -0.28253,-0.23448 -0.60713,-0.33292 -0.7213,-0.21872 -0.18008,0.18006 -1.13627,0.34862 -2.87995,0.50767 -0.26316,0.024 -0.47848,0.22606 -0.47848,0.44902 v 0.40538 l 0.44192,-0.27312 0.44194,-0.27313 -0.29583,0.47866 -0.29583,0.47867 -0.55035,-0.55036 -0.55036,-0.55036 -1.98816,0.33757 c -1.09349,0.18566 -2.8361,0.42665 -3.87246,0.53552 -1.03637,0.10879 -2.20265,0.36831 -2.59173,0.57654 l -0.7074,0.37859 -0.37831,-0.2338 c -0.20806,-0.12862 -0.72377,-0.12413 -1.146,0.0101 l -0.7677,0.24366 0.27042,0.45092 0.27043,0.45093 -0.62928,-0.51011 -0.62929,-0.51011 -0.83452,0.26487 -0.83451,0.26487 0.52905,0.33507 0.52906,0.33508 -0.59331,0.006 c -0.32633,0.003 -0.77511,-0.17593 -0.9973,-0.39812 l -0.40398,-0.40398 -1.0487,0.26321 -1.04871,0.26321 0.33126,0.23647 c 0.30626,0.21862 1.27264,2.15587 1.27264,2.55118 0,0.62595 -0.79518,-0.003 -0.99117,-0.78357 l -0.24019,-0.95697 h -0.52066 -0.52067 l 0.22199,-0.57852 0.222,-0.57852 -0.55371,0.21247 -0.55372,0.21249 -0.82909,-0.68662 -0.82909,-0.68662 -1.97226,-4.78483 c -1.084763,-2.63165 -2.512214,-6.19691 -3.172134,-7.92278 l -1.199848,-3.13796 -1.041039,-1.16838 -1.041052,-1.1684 -0.666924,0.0269 -0.666923,0.0269 0.765577,0.32898 0.765577,0.32899 -0.478483,0.0269 -0.478484,0.0269 v 1.5038 1.50381 l -0.592488,0.59247 -0.592473,0.59249 0.387613,0.72428 c 0.213193,0.39835 0.301792,0.81011 0.196874,0.91503 -0.104889,0.10489 0.466389,0.29583 1.269553,0.42426 l 1.460292,0.23351 1.205982,1.25291 1.205982,1.25292 1.413808,3.06227 c 0.7776,1.68427 2.06221,4.61258 2.85471,6.50737 0.79249,1.8948 1.76135,4.17541 2.15301,5.06803 l 0.71211,1.62295 0.73574,0.004 c 0.40466,10e-4 2.12721,-0.24258 3.82786,-0.54381 z m -12.070725,-24.16846 0.425577,0.26302 v -0.37406 c 0,-0.20574 -0.104166,-0.64555 -0.231495,-0.97736 l -0.231509,-0.60329 -0.401821,0.24834 -0.40182,0.24833 0.268271,-0.43405 0.268256,-0.43405 -0.478498,-1.63472 c -0.263178,-0.89909 -0.806245,-2.15147 -1.206807,-2.78307 l -0.728309,-1.14836 0.29045,0.76557 c 0.159736,0.42106 0.349304,1.36846 0.421236,2.10532 l 0.130786,1.33975 -0.560963,-1.53114 c -0.308534,-0.84212 -0.672117,-1.83258 -0.807952,-2.20101 -0.13585,-0.36845 -0.372669,-0.66989 -0.526299,-0.66989 -0.416577,0 -2.693676,1.17537 -2.693676,1.39038 0,0.10229 0.171729,0.0799 0.381638,-0.0499 l 0.381624,-0.23586 -0.38226,1.0054 -0.382246,1.00541 0.232551,0.92657 0.23255,0.92656 1.586304,0.42223 c 0.872478,0.23223 1.872616,0.6776 2.222556,0.98969 l 0.636238,0.56746 0.180627,-0.69876 0.180612,-0.69877 0.0502,1.53115 0.0502,1.53114 0.334141,-0.52752 0.334127,-0.52752 z m -6.945314,-20.57583 c -0.09042,-3.76262 -0.06235,-7.29812 0.06235,-7.85668 l 0.226923,-1.01556 0.191391,3.7926 0.19139,3.79258 0.669875,0.0971 0.669874,0.0971 v -0.32157 c 0,-0.17687 -0.270513,-0.5921 -0.601139,-0.92273 l -0.601154,-0.60114 0.06033,-2.58418 c 0.06901,-2.96224 -0.327733,-6.20768 -0.837929,-6.8533 l -0.348696,-0.44126 0.390203,-0.13296 0.390203,-0.13295 -0.242562,-6.97153 c -0.133391,-3.83434 -0.349405,-6.9055 -0.47996,-6.8248 -0.130497,0.0807 -0.196743,-0.65783 -0.147033,-1.64117 0.04977,-0.98333 -0.05555,-8.16126 -0.233809,-15.95097 -0.178312,-7.7897 -0.33773,-17.56509 -0.354295,-21.72311 l -0.03009,-7.56002 h -0.395918 c -0.217751,0 -0.395918,0.25837 -0.395918,0.57417 v 0.57419 h -0.435382 -0.435385 l 0.238772,3.15798 c 0.131365,1.7369 0.241101,3.98636 0.24398,4.99881 l 0.0058,1.84083 0.382781,-0.23658 0.382796,-0.23658 v 0.61937 0.61936 l -0.382796,-0.23658 -0.382781,-0.23657 v 0.61935 0.61937 l 0.382781,-0.23657 0.382796,-0.23657 v 0.81074 0.81076 l -0.382796,-0.23657 -0.382781,-0.23658 v 0.6241 c 0,0.34327 0.258375,0.88251 0.574171,1.1983 0.733966,0.73396 0.733966,1.28507 0,1.28507 h -0.574171 v 1.32774 1.32774 l 0.669874,-0.25106 0.669874,-0.25104 -0.525344,0.64585 -0.525358,0.64584 h 0.429656 0.429656 v 0.60153 c 0,0.33083 -0.247597,0.84911 -0.550214,1.15173 l -0.550214,0.55021 0.187499,2.5654 0.187485,2.56537 0.458417,0.56701 0.458417,0.567 -0.478483,-0.28745 -0.478484,-0.28747 v 1.53115 1.53114 l 0.382796,0.23657 c 0.210531,0.13007 0.382781,0.40884 0.382781,0.61937 v 0.38278 l -0.350201,-0.21643 -0.350186,-0.21644 0.134838,7.56249 c 0.07422,4.15935 0.228297,9.80176 0.342532,12.53868 0.114294,2.73692 0.317374,9.54094 0.45143,15.12005 0.134114,5.57912 0.266679,10.74672 0.294746,11.48358 l 0.05107,1.33976 -0.478484,-0.0956 -0.478484,-0.0956 v 1.36235 1.36235 l 0.382796,-0.23657 0.382781,-0.23659 0.03458,0.69247 0.03458,0.69247 0.381522,-1.33018 0.381523,-1.33019 z m 113.023735,-6.95832 c 0.23628,-1.8948 0.75377,-6.7179 1.14996,-10.71801 0.39619,-4.00012 1.08195,-10.4371 1.52394,-14.30444 0.44196,-3.86732 0.71767,-7.1174 0.61267,-7.22239 -0.2796,-0.27962 -0.52525,1.1294 -0.98342,5.64121 -0.22449,2.21059 -0.5757,5.48341 -0.78048,7.27293 -0.20476,1.78953 -0.62285,5.57912 -0.9291,8.4213 -1.20691,11.20121 -1.43392,13.24014 -1.5732,14.12994 l -0.14467,0.92382 0.34731,-0.34964 c 0.19101,-0.1923 0.54063,-1.89993 0.77691,-3.79472 z m -4.26511,-16.07702 c 3.6269,-36.82611 5.41062,-55.43585 5.31731,-55.47635 -0.0545,-0.0237 -0.702,-0.26709 -1.43888,-0.54094 l -1.33974,-0.49792 -3.44508,0.0341 c -1.89479,0.0188 -10.48835,0.2973 -19.09677,0.61897 l -15.65172,0.58485 -1.18782,0.61425 -1.18783,0.61426 -2.59648,0.18578 c -3.2752,0.23433 -2.82986,-1.62909 -3.54145,14.81879 -0.10011,2.31586 -0.35128,7.74185 -0.55798,12.05777 -0.2067,4.3159 -0.55212,11.98119 -0.76763,17.03398 -0.21549,5.05278 -0.48433,10.70318 -0.59742,12.55645 l -0.20561,3.36958 1.25934,-0.20363 c 0.69263,-0.11198 3.92927,-0.47764 7.19252,-0.81257 3.26324,-0.33492 8.14579,-0.85527 10.8501,-1.15633 2.70433,-0.30106 5.65736,-0.54739 6.56231,-0.54739 h 1.64536 l 8.33368,6.7123 8.33368,6.7123 0.26836,-0.30063 c 0.14759,-0.16535 0.98088,-7.53529 1.85175,-16.37765 z M 54.000051,179.59319 c 10.148113,-0.93898 15.902433,-1.70634 19.145163,-2.55305 l 1.62425,-0.42411 0.48108,0.39062 c 0.26458,0.21484 0.82557,0.48363 1.24665,0.59733 0.42106,0.11372 -0.0527,0.11271 -1.05267,-0.003 l -1.81824,-0.209 v 0.44884 c 0,0.24688 -0.12919,0.3748 -0.28709,0.28429 -0.1579,-0.0906 -1.57898,0.0654 -3.15798,0.34629 l -2.87089,0.51085 2.5838,-0.20795 2.58381,-0.20796 v 0.41325 c 0,0.22728 0.18242,0.41325 0.40538,0.41325 h 0.40538 l -0.21179,-0.34266 -0.21179,-0.34268 0.62677,-0.24052 c 0.83343,-0.31982 1.22007,0.10648 0.5061,0.55804 l -0.56309,0.3561 0.84554,0.006 c 2.17739,0.015 4.17493,-1.67912 2.69524,-2.28594 l -0.86128,-0.35321 1.14836,0.0187 c 0.63161,0.0101 2.75382,-0.25857 4.71603,-0.59739 l 3.56767,-0.61604 0.39868,0.2464 0.39868,0.24641 0.32406,-0.52433 0.32405,-0.52432 0.47528,0.47528 0.47529,0.47528 -0.36366,0.0599 c -0.2,0.033 -0.79428,0.10634 -1.32061,0.16299 -1.87588,0.20204 -7.84501,1.37015 -8.03575,1.57251 -0.10677,0.11328 0.49487,0.10517 1.337,-0.0181 0.84214,-0.12326 3.21062,-0.43106 5.2633,-0.68408 l 3.73217,-0.46004 v -0.3392 -0.33922 l 0.36918,0.22816 0.36918,0.22817 -0.5657,-1.35393 -0.56571,-1.35394 h 0.45172 c 0.24843,0 0.37994,-0.0712 0.29223,-0.15808 -0.0877,-0.087 -1.79591,0.0767 -3.79597,0.36367 l -3.63647,0.52175 3.06229,-0.16373 c 4.75598,-0.25429 3.11142,0.0674 -7.65572,1.49793 -5.47384,0.7272 -10.64146,1.42953 -11.48358,1.56072 -0.84213,0.13122 -2.03569,0.23563 -2.65237,0.2321 -0.61666,-0.003 -1.33419,0.17031 -1.59449,0.38634 l -0.47326,0.39278 -3.19034,0.16411 c -3.324816,0.17103 -8.273947,0.86928 -8.928269,1.25962 l -0.378933,0.22607 0.953105,0.24064 0.953119,0.24063 0.859934,-0.31 c 0.472972,-0.17051 1.84779,-0.40142 3.055161,-0.51313 z m 20.112733,-5.35222 c 14.26799,-1.77838 26.110436,-3.33765 26.316546,-3.46504 l 0.37477,-0.23161 0.004,-3.70958 c 0.001,-2.04027 0.16597,-7.41302 0.36437,-11.93947 0.19839,-4.52645 0.46369,-11.24435 0.58955,-14.92866 0.12586,-3.68432 0.29762,-8.07679 0.38169,-9.76105 0.0841,-1.68425 0.26759,-6.59348 0.40781,-10.9094 0.14019,-4.31592 0.33163,-7.97663 0.42535,-8.13492 0.0937,-0.1583 -0.31369,-0.50043 -0.90531,-0.76029 l -1.0757,-0.4725 -8.995476,0.0145 c -8.12144,0.013 -17.9864,0.36441 -35.85572,1.27789 l -6.189822,0.31641 -1.039041,0.81732 -1.039057,0.81731 h -0.768542 -0.768543 l 0.254237,14.25878 c 0.648897,36.39194 1.050211,50.05691 1.469783,50.04665 0.05932,-10e-4 11.781515,-1.45768 26.049475,-3.23605 z m -31.723253,-76.920431 -0.207059,-0.53959 0.793253,-0.25178 0.793253,-0.25176 v -1.89635 -1.89634 l -0.927671,-0.42268 -0.92767,-0.42267 -1.369046,0.25683 -1.369046,0.25684 v 2.04702 2.04702 l 0.608721,0.23359 0.60872,0.2336 0.44395,-0.26612 0.443935,-0.26611 -0.500836,0.61811 -0.500821,0.61811 0.883617,0.1688 c 0.485978,0.0929 1.007401,0.19228 1.158688,0.22095 l 0.275071,0.0521 z m 10.075286,-0.80296 c 1.519464,-0.317 3.155867,-0.73713 3.636467,-0.93363 1.47393,-0.60263 7.82883,-2.20958 14.39756,-3.64067 3.43795,-0.749 6.5691,-1.53217 6.95812,-1.74037 l 0.7073,-0.37853 0.60191,0.23097 0.60191,0.23098 v -0.46523 -0.46525 l 1.05267,0.24452 1.05265,0.24453 -0.57419,-0.41127 -0.57417,-0.41127 2.16933,0.24839 2.16932,0.2484 1.30764,-0.43157 1.30766,-0.43157 v -0.56555 c 0,-0.31105 -0.10763,-0.56554 -0.23919,-0.56554 -1.21443,0 -10.11527,1.35498 -12.76944,1.94389 l -3.37516,0.74891 -0.357,-0.22064 -0.35699,-0.22063 v 0.36277 0.36279 l -1.43545,0.24991 c -0.78949,0.13744 -3.57048,0.77843 -6.17997,1.42436 -2.60947,0.64594 -4.93491,1.20343 -5.1676,1.23889 -0.2327,0.0354 -0.63841,0.19897 -0.90157,0.36338 -0.26317,0.16439 -0.63884,0.19981 -0.83482,0.0787 l -0.356336,-0.22024 -0.256566,0.41513 -0.256567,0.41514 -0.583981,-0.22411 -0.583966,-0.22408 -0.456059,0.3785 c -0.250838,0.20815 -1.047202,0.42645 -1.769724,0.48508 -1.497734,0.12152 -2.143028,0.58722 -2.143028,1.54659 0,0.80218 -0.187643,0.79701 3.20924,0.0884 z m 3.963637,-22.250148 c 1.86609,-0.902854 2.56513,-1.58206 4.08378,-3.967889 0.73705,-1.157928 1.67563,-2.424483 2.08573,-2.814568 l 0.74561,-0.709245 -0.26849,-2.544437 -0.26849,-2.544437 -0.42764,-0.281228 -0.42763,-0.281228 0.38278,-0.01804 0.38279,-0.01804 -0.69079,-0.523799 -0.69078,-0.523799 -0.0586,-0.777259 -0.0586,-0.77726 -0.30332,0.187466 -0.30333,0.187464 -0.0453,-0.501073 c -0.0249,-0.27559 -0.0272,-0.623532 -0.004,-0.773204 0.0221,-0.149673 -0.75914,-0.82219 -1.73629,-1.494484 l -1.7767,-1.222342 0.27886,0.537519 0.27885,0.537517 -0.5289,-0.642297 -0.52891,-0.642296 -0.52753,0.326032 -0.527524,0.326034 0.500734,0.603353 c 0.2754,0.331844 0.71134,0.603353 0.96873,0.603353 0.25738,0 0.77976,0.344507 1.16081,0.765572 l 0.69284,0.765573 h -0.39525 c -0.21739,0 -0.60968,-0.258381 -0.87177,-0.574179 -0.76407,-0.920648 -1.25924,-0.498614 -2.133293,1.818234 -0.139033,0.368431 -0.376097,0.669875 -0.526878,0.669875 -0.445932,0 -0.208433,-1.416233 0.350418,-2.089612 l 0.516493,-0.622337 -0.443128,-0.443119 c -0.243706,-0.243717 -0.446945,-0.796241 -0.451633,-1.227833 -0.0043,-0.431592 -0.311355,-1.178249 -0.68152,-1.65924 l -0.673014,-0.874531 -2.242131,-0.163273 -2.242145,-0.163274 0.883762,0.940722 0.883762,0.940722 -0.420208,0.862654 c -0.231133,0.474459 -0.520194,1.121033 -0.642387,1.436833 -0.12225,0.315798 -0.133824,-0.151313 -0.02575,-1.038026 l 0.196041,-1.612206 -0.767761,-0.41089 -0.767748,-0.41089 v -0.560712 -0.560711 h -0.925659 c -0.509112,0 -1.196897,0.104079 -1.52842,0.231301 l -0.60276,0.231302 0.212629,0.847182 0.212629,0.847182 -1.797703,1.400574 -1.797689,1.400573 -0.364943,-0.225541 -0.364928,-0.225542 0.188801,-0.72199 0.188801,-0.721991 -0.353094,-0.218224 -0.353094,-0.218224 0.271121,-0.452032 0.271121,-0.452033 -0.647667,0.525353 c -0.759211,0.61584 -0.854769,0.964496 -0.169168,0.617204 0.263164,-0.133304 0.01302,0.123061 -0.55522,0.5697 l -1.033703,0.812077 0.213381,0.556067 0.213396,0.556066 h -0.381147 -0.381132 l -0.251344,1.339752 c -0.138309,0.736863 -0.392662,1.339752 -0.565375,1.339752 h -0.314046 l 0.288511,1.57775 0.288511,1.577753 0.521351,0.330316 0.521365,0.330318 -0.574186,0.01172 -0.574172,0.01172 0.574172,0.371064 0.574186,0.371063 -0.478484,0.0059 -0.478483,0.0059 v 0.930423 0.930422 l 0.861265,1.334467 0.861279,1.334467 1.63192,1.047511 c 1.823326,1.170373 1.861968,1.51052 0.128327,1.129752 l -1.165386,-0.255901 -0.967312,-1.149586 c -1.284411,-1.526438 -1.229131,-0.916199 0.09823,1.084358 1.112219,1.676306 2.433217,2.862376 3.710264,3.331289 l 0.756564,0.277802 -0.852266,-0.907192 c -0.468744,-0.499088 -0.852263,-1.020007 -0.852263,-1.157729 v -0.250405 l 0.669875,0.23642 c 0.368429,0.130033 1.070725,0.598321 1.560639,1.040647 l 0.890764,0.804229 2.745701,0.245387 c 1.510147,0.134968 3.619365,0.180128 4.687168,0.100361 l 1.941467,-0.145023 z m 105.693186,-0.266485 0.50924,-0.509241 0.52836,0.176115 0.52834,0.176116 -0.23846,-0.385841 -0.23847,-0.38584 1.1603,-0.232057 1.16029,-0.232059 -0.0796,-0.484422 c -0.0437,-0.266434 0.11733,-0.961211 0.35778,-1.543949 l 0.43731,-1.059527 0.96383,-0.366447 0.96384,-0.366448 v -0.743739 c 0,-1.021535 0.4039,-1.986842 0.7435,-1.776953 l 0.28051,0.173363 -0.0447,-1.228223 c -0.0246,-0.675523 -0.14859,-1.400477 -0.2756,-1.611009 -0.12703,-0.210533 -0.34378,-0.899548 -0.48171,-1.531144 -0.13788,-0.631598 -0.57815,-1.57787 -0.97824,-2.102826 l -0.72744,-0.954468 -0.25186,0.763075 c -0.1386,0.41969 -0.31606,0.978392 -0.39452,1.241557 l -0.14265,0.478483 h -0.96897 -0.96898 v -0.370773 -0.370772 l 0.54482,0.209068 0.54483,0.209067 0.45124,-0.843156 0.45124,-0.843157 -0.9628,-0.962791 -0.96278,-0.962792 -0.55183,0.211758 -0.55184,0.211756 0.28391,1.851592 0.28391,1.851593 -0.60736,1.148359 -0.60737,1.148358 -0.15262,-0.719705 -0.1526,-0.719703 0.37745,-0.237262 0.37746,-0.237261 -0.0605,-1.849506 -0.0605,-1.849504 -0.78321,-0.829998 c -0.43075,-0.456499 -1.15338,-1.124647 -1.60581,-1.484774 l -0.8226,-0.654776 -0.20666,0.334379 c -0.11371,0.183909 -0.89477,0.450635 -1.73579,0.592726 l -1.52915,0.258346 v 0.34914 c 0,0.192028 0.1292,0.328743 0.2871,0.303811 0.15789,-0.02493 0.50239,-0.02493 0.76556,0 l 0.47848,0.04533 v 0.838733 0.838735 l -0.49311,-0.674365 c -0.27121,-0.370901 -0.65878,-0.641806 -0.86126,-0.602011 -0.20249,0.0398 -0.59365,0.05195 -0.86924,0.02703 l -0.50107,-0.04533 0.18747,-0.303324 0.18746,-0.303326 -0.73039,-0.05502 -0.7304,-0.05502 -0.78338,1.100173 -0.7834,1.100174 -0.74836,-0.144125 -0.74836,-0.144126 -0.2586,0.418401 -0.25857,0.418401 0.40182,-0.248339 0.40182,-0.248337 0.21948,0.57198 0.21949,0.571981 h 0.59567 0.59567 l 0.34969,-0.919781 c 0.19234,-0.50588 0.5592,-1.049256 0.81525,-1.207503 l 0.46553,-0.28772 -0.29957,0.484727 -0.29958,0.484726 0.41163,0.254395 0.41161,0.254397 -0.35671,0.564076 -0.35672,0.564075 -0.006,-0.551643 -0.006,-0.551644 -0.53593,0.732932 -0.53594,0.732933 0.53594,0.765153 c 0.29476,0.420834 0.53593,1.034675 0.53593,1.364093 v 0.598942 l -0.79451,0.05985 -0.7945,0.05985 0.43828,-0.5281 0.43828,-0.528102 -0.39871,-0.745005 c -0.2193,-0.409753 -0.65636,-0.843875 -0.97128,-0.964717 l -0.57255,-0.219709 -0.20603,0.333375 -0.20603,0.333374 0.47984,0.159949 0.47985,0.15995 -0.86593,0.46343 -0.86594,0.463432 -0.22666,-0.590687 c -0.12471,-0.324878 -0.37618,-0.590686 -0.55892,-0.590686 h -0.33228 l 0.24203,1.244055 c 0.1331,0.684229 0.41049,1.354756 0.61642,1.490057 l 0.3744,0.246004 -0.2526,1.006457 -0.25262,1.006457 0.58359,0.223941 c 0.32096,0.123162 0.58358,0.377766 0.58358,0.565773 v 0.341833 h -1.19095 -1.19097 l 0.23388,-1.244054 0.23387,-1.244055 -4.11483,0.11629 -4.11484,0.11629 -0.1276,0.362194 c -0.0702,0.199207 -0.29566,0.362194 -0.50107,0.362194 h -0.37348 l 0.2101,-0.339948 0.2101,-0.339948 -5.45082,-0.281152 -5.45082,-0.281151 -0.76557,-0.560499 -0.76557,-0.5605 1.25984,0.258516 c 1.91903,0.393778 5.37035,0.550931 12.4954,0.568968 l 6.48231,0.01641 0.3887,-0.388706 0.38871,-0.388706 -0.74644,-0.0059 -0.74643,-0.0059 0.57418,-0.371063 0.57418,-0.371064 -1.91394,-0.01767 c -1.05265,-0.0097 -3.46421,-0.121382 -5.35899,-0.248139 l -3.44508,-0.230475 -0.23925,-0.372768 -0.23923,-0.372768 -0.2349,0.380063 -0.23489,0.380064 -2.20537,-0.15963 c -1.21296,-0.08779 -2.54987,-0.227254 -2.97095,-0.309909 -0.42106,-0.08265 -1.28232,-0.175566 -1.91392,-0.20647 l -1.14836,-0.05619 0.76557,-0.328979 0.76557,-0.328978 -0.86126,-0.02691 -0.86127,-0.02691 v 0.373216 0.373216 l -1.24406,-0.242015 c -0.68422,-0.133115 -1.3706,-0.430246 -1.52528,-0.660307 l -0.28123,-0.41829 -0.0116,0.382787 -0.0116,0.382785 -0.37106,-0.574179 -0.37108,-0.574179 -0.006,0.551645 -0.006,0.551644 -0.56201,-0.743038 -0.562,-0.743036 -0.0116,0.542279 -0.0116,0.542281 -0.25602,-0.256027 -0.25603,-0.256025 -0.76673,0.67071 -0.76675,0.670712 0.26548,-0.455317 0.26546,-0.455315 -0.74733,0.05629 -0.74734,0.05629 0.18747,0.303324 0.18747,0.303326 h -0.59677 c -0.32822,0 -0.59677,0.172253 -0.59677,0.382786 v 0.382787 h -0.95696 -0.95697 v 2.319306 2.319309 l 0.38279,-0.236576 0.38279,-0.236575 v 0.241326 c 0,0.374288 -1.14599,1.430465 -1.16669,1.075253 -0.0101,-0.172938 -0.10258,-1.261827 -0.20553,-2.419756 -0.10301,-1.157927 -0.25554,-2.880464 -0.33904,-3.82786 -0.0835,-0.947396 -0.23621,-2.067045 -0.33935,-2.488111 -0.10316,-0.421065 -0.20071,-0.894762 -0.21683,-1.052661 -0.0161,-0.157899 -0.20153,-0.287091 -0.41206,-0.287091 h -0.3828 v 0.931172 0.931169 l -0.8041,0.255213 -0.80411,0.255213 -0.43994,-0.477149 -0.43995,-0.477148 0.64189,0.224977 0.64188,0.224978 0.48185,-0.5806 0.48186,-0.580601 -0.50513,-0.312189 -0.50514,-0.312188 -1.00139,0.260913 c -0.55077,0.143503 -1.3989,0.197708 -1.88473,0.120456 l -0.88333,-0.14045 0.14614,-0.438411 c 0.0804,-0.241125 0.564,-0.55518 1.07472,-0.697901 l 0.92859,-0.259492 -1.16749,-0.03815 -1.1675,-0.03815 -0.45935,0.459343 c -0.25264,0.252639 -0.45934,0.346407 -0.45934,0.208374 0,-0.138034 -0.71588,0.0016 -1.59086,0.310315 -1.72285,0.607857 -2.54685,0.440384 -1.04852,-0.213105 l 0.91684,-0.399877 -1.72253,0.22589 c -0.94741,0.124232 -2.01008,0.226111 -2.36149,0.22638 l -0.63895,4.92e-4 -0.20807,0.54222 -0.20807,0.542221 0.75133,0.402092 c 0.41322,0.221152 0.75131,0.589379 0.75131,0.818282 v 0.416188 l -0.63643,-0.525352 -0.63642,-0.525353 0.1909,0.574179 c 0.10503,0.315798 0.43444,0.597373 0.73213,0.625721 0.29766,0.02834 0.72414,0.07141 0.94772,0.0957 0.53057,0.05762 2.21383,2.336241 1.93318,2.616902 -0.11878,0.11872 -0.48235,-0.0054 -0.80806,-0.275626 l -0.59218,-0.491477 0.2411,0.628322 0.24111,0.628322 h 0.53323 0.53323 v 2.319308 2.319307 l 0.34708,-0.214512 0.34709,-0.214513 -0.20033,0.766101 -0.20035,0.766101 h -0.4831 -0.48308 l -0.43598,-1.052662 -0.43598,-1.052662 0.0696,-1.837469 0.0696,-1.837469 -0.57067,-0.570675 -0.57067,-0.570674 -1.11896,0.446358 -1.11896,0.446358 -4.976216,0.181457 -4.97621,0.181456 -0.48775,0.399429 -0.48772,0.399429 -0.24595,-0.245942 -0.24594,-0.24594 h 0.44659 c 0.24561,0 0.44658,-0.150015 0.44658,-0.333366 v -0.333366 l -1.80246,0.336736 c -0.99136,0.185206 -1.97321,0.507476 -2.18189,0.716154 -0.55771,0.55772 -0.99186,0.462582 -0.99186,-0.217354 v -0.596771 l 0.30536,0.188726 c 0.16796,0.103805 0.53505,0.04677 0.81578,-0.126721 l 0.51041,-0.315454 -1.86844,0.01215 c -1.02765,0.0067 -2.0609,0.162162 -2.29614,0.345431 l -0.42769,0.333214 -0.48761,-0.587542 -0.48762,-0.587542 -0.61583,0.180845 c -1.44895,0.425499 -4.34218,0.694672 -8.35162,0.776999 l -4.2907,0.08811 -0.58982,0.489505 -0.58982,0.489505 v -0.859311 -0.859312 l -0.57418,0.476526 -0.57417,0.476526 v -0.506213 -0.506214 l -0.43474,0.434735 -0.43473,0.434736 -0.61794,-0.617935 -0.61792,-0.617933 -0.12962,0.672819 c -0.0713,0.37005 -0.0204,1.107875 0.11299,1.639612 l 0.24265,0.966794 0.74873,-0.1958 0.74875,-0.1958 -0.21451,0.347087 c -0.11791,0.190898 -0.6149,0.347088 -1.10425,0.347088 h -0.88973 l -0.21756,0.832002 c -0.29698,1.135611 -0.0155,1.464714 1.25278,1.464714 h 1.07933 l 0.4661,-1.125255 0.46609,-1.125253 -0.24897,-0.402858 -0.24899,-0.402859 0.39187,-0.672907 0.39186,-0.672907 0.0116,1.197185 0.0116,1.197184 0.55849,0.463515 0.5585,0.463514 1.10324,-0.242311 1.10323,-0.24231 2.45321,0.38213 c 1.34927,0.210172 6.75957,0.5654 12.02288,0.789396 5.2633,0.223996 10.24972,0.478533 11.08091,0.565636 l 1.51124,0.158372 -0.55429,-0.350668 -0.55428,-0.350666 0.82936,-0.0059 c 0.45616,-0.0032 0.8868,0.162381 0.95697,0.368007 l 0.12761,0.37387 2.792556,0.104614 2.79256,0.104615 -0.82534,0.669875 -0.82535,0.669876 h 0.42519 0.4252 v 0.574179 c 0,0.315799 -0.17225,0.57418 -0.38278,0.57418 -0.21055,0 -0.3828,0.153672 -0.3828,0.341495 v 0.341495 l 3.87343,0.277237 3.87344,0.277236 0.24151,-0.331643 c 0.13281,-0.182403 0.58603,-0.366463 1.0071,-0.409024 0.42106,-0.04256 1.32539,-0.168385 2.00962,-0.279613 l 1.24406,-0.202233 v 0.375311 c 0,0.20642 0.17225,0.375311 0.38278,0.375311 h 0.3828 v -0.624695 c 0,-0.343582 0.34282,-1.179413 0.76184,-1.857405 l 0.76186,-1.232711 8.13793,-0.290192 c 4.47586,-0.159607 8.7408,-0.339512 9.47766,-0.399789 0.73688,-0.06029 3.9517,-0.224598 7.14409,-0.365154 l 5.80433,-0.255559 0.79033,0.6767 0.79033,0.676702 1.53955,0.03863 1.53954,0.03863 0.006,-0.403595 c 0.009,-0.614335 1.44669,2.515985 1.69322,3.684344 l 0.21642,1.02565 2.00911,0.574983 c 1.84458,0.527896 3.2763,0.80358 4.94837,0.952833 0.3534,0.03154 0.87169,-0.171806 1.15177,-0.45189 z m -54.28681,-5.314761 c -0.10113,-0.163733 -0.25629,-0.673151 -0.34466,-1.13204 l -0.16069,-0.834344 0.40764,-0.491168 0.40763,-0.491167 -0.30484,-1.259733 c -0.16766,-0.692854 -0.23657,-1.862622 -0.15313,-2.599486 0.0835,-0.736863 0.16234,-1.985702 0.17529,-2.775198 l 0.0236,-1.435449 h 0.47848 c 0.26316,0 0.47848,0.153115 0.47848,0.340255 v 0.340255 l 0.66988,-0.05317 0.66987,-0.05317 -0.0204,1.339752 c -0.0116,0.736863 -0.1776,2.20102 -0.36966,3.253683 -0.19207,1.052661 -0.35512,2.89044 -0.36234,4.083951 l -0.013,2.170021 -0.69898,-0.05265 c -0.38443,-0.02896 -0.78178,-0.186616 -0.88297,-0.350349 z M 84.649124,62.299877 c 3.61371,0.0085 6.746,-0.09297 6.96064,-0.225618 l 0.39026,-0.241194 v 0.418846 0.418845 l 0.66987,-0.358074 0.66987,-0.358075 4.01289,0.125954 4.012876,0.125954 0.48135,-0.399488 0.48136,-0.399487 1.13165,0.166091 1.13164,0.166091 -0.19377,-0.313523 c -0.10663,-0.172439 -0.70036,-0.313523 -1.31954,-0.313523 h -1.12576 V 60.722093 60.33151 l -2.472116,0.1885 -2.47214,0.188501 -0.25522,-0.412965 -0.25522,-0.412964 -0.24768,0.400749 -0.24767,0.40075 -2.09689,0.0807 -2.09689,0.0807 -0.55197,0.420688 -0.55196,0.420687 0.2618,-0.436962 0.2618,-0.436962 -1.43238,-0.179653 -1.43237,-0.179653 -0.38329,0.297388 c -0.2108,0.163564 -1.78828,0.354913 -3.5055,0.425222 l -3.12223,0.127835 0.20352,-0.327231 0.20355,-0.32723 -2.05704,0.270477 c -1.13135,0.148762 -3.43504,0.282403 -5.11931,0.296979 l -3.06229,0.0265 1.14836,0.272052 1.14835,0.272051 -2.83898,0.04528 -2.839,0.04528 0.28532,0.28709 c 0.15693,0.157898 2.20963,0.373215 4.56154,0.478482 l 4.2762,0.191394 0.408,-0.275457 0.40798,-0.275456 z"
       id="path1" /></g></svg>
